<svg width="51" height="28" viewBox="0 0 51 28" fill="none" xmlns="http://www.w3.org/2000/svg">
<rect x="0.136719" width="50" height="28" rx="8" fill="#0862EE"/>
<path d="M13.7809 20V10.658H11.2789V8.714C11.7709 8.702 12.2149 8.66 12.6109 8.588C13.0069 8.504 13.3609 8.36 13.6729 8.156C13.9849 7.94 14.2549 7.64 14.4829 7.256H16.3549V20H13.7809ZM23.4946 20.126C22.8826 20.126 22.2946 20.054 21.7306 19.91C21.1666 19.766 20.6506 19.538 20.1826 19.226C19.7146 18.914 19.3246 18.518 19.0126 18.038C18.7006 17.546 18.5086 16.958 18.4366 16.274H20.9926C21.0766 16.61 21.2386 16.892 21.4786 17.12C21.7306 17.336 22.0306 17.492 22.3786 17.588C22.7386 17.684 23.1166 17.732 23.5126 17.732C23.7766 17.732 24.0346 17.708 24.2866 17.66C24.5506 17.612 24.7846 17.528 24.9886 17.408C25.2046 17.288 25.3726 17.126 25.4926 16.922C25.6126 16.718 25.6726 16.46 25.6726 16.148C25.6726 15.86 25.6186 15.62 25.5106 15.428C25.4026 15.236 25.2586 15.08 25.0786 14.96C24.8986 14.84 24.6826 14.756 24.4306 14.708C24.1906 14.66 23.9326 14.636 23.6566 14.636H22.1806V12.44H23.1706C23.4826 12.44 23.7646 12.41 24.0166 12.35C24.2686 12.278 24.4786 12.182 24.6466 12.062C24.8266 11.93 24.9646 11.774 25.0606 11.594C25.1566 11.402 25.2046 11.186 25.2046 10.946C25.2046 10.586 25.1266 10.304 24.9706 10.1C24.8146 9.884 24.5986 9.728 24.3226 9.632C24.0466 9.536 23.7286 9.488 23.3686 9.488C23.0326 9.488 22.7146 9.542 22.4146 9.65C22.1266 9.746 21.8866 9.89 21.6946 10.082C21.5026 10.274 21.3766 10.508 21.3166 10.784H18.8146C18.8866 10.136 19.0606 9.584 19.3366 9.128C19.6126 8.66 19.9666 8.276 20.3986 7.976C20.8306 7.676 21.3106 7.46 21.8386 7.328C22.3786 7.184 22.9366 7.112 23.5126 7.112C24.0646 7.112 24.5926 7.172 25.0966 7.292C25.6006 7.412 26.0506 7.61 26.4466 7.886C26.8546 8.15 27.1786 8.504 27.4186 8.948C27.6586 9.392 27.7786 9.926 27.7786 10.55C27.7786 10.934 27.7126 11.294 27.5806 11.63C27.4606 11.966 27.2806 12.266 27.0406 12.53C26.8126 12.782 26.5426 12.992 26.2306 13.16C26.6986 13.292 27.0826 13.508 27.3826 13.808C27.6826 14.108 27.9046 14.462 28.0486 14.87C28.2046 15.278 28.2826 15.716 28.2826 16.184C28.2826 16.952 28.1386 17.594 27.8506 18.11C27.5746 18.614 27.2026 19.016 26.7346 19.316C26.2666 19.604 25.7506 19.814 25.1866 19.946C24.6226 20.066 24.0586 20.126 23.4946 20.126ZM34.5337 20.126C33.9217 20.126 33.3337 20.054 32.7697 19.91C32.2057 19.766 31.6897 19.538 31.2217 19.226C30.7537 18.914 30.3637 18.518 30.0517 18.038C29.7397 17.546 29.5477 16.958 29.4757 16.274H32.0317C32.1157 16.61 32.2777 16.892 32.5177 17.12C32.7697 17.336 33.0697 17.492 33.4177 17.588C33.7777 17.684 34.1557 17.732 34.5517 17.732C34.8157 17.732 35.0737 17.708 35.3257 17.66C35.5897 17.612 35.8237 17.528 36.0277 17.408C36.2437 17.288 36.4117 17.126 36.5317 16.922C36.6517 16.718 36.7117 16.46 36.7117 16.148C36.7117 15.86 36.6577 15.62 36.5497 15.428C36.4417 15.236 36.2977 15.08 36.1177 14.96C35.9377 14.84 35.7217 14.756 35.4697 14.708C35.2297 14.66 34.9717 14.636 34.6957 14.636H33.2197V12.44H34.2097C34.5217 12.44 34.8037 12.41 35.0557 12.35C35.3077 12.278 35.5177 12.182 35.6857 12.062C35.8657 11.93 36.0037 11.774 36.0997 11.594C36.1957 11.402 36.2437 11.186 36.2437 10.946C36.2437 10.586 36.1657 10.304 36.0097 10.1C35.8537 9.884 35.6377 9.728 35.3617 9.632C35.0857 9.536 34.7677 9.488 34.4077 9.488C34.0717 9.488 33.7537 9.542 33.4537 9.65C33.1657 9.746 32.9257 9.89 32.7337 10.082C32.5417 10.274 32.4157 10.508 32.3557 10.784H29.8537C29.9257 10.136 30.0997 9.584 30.3757 9.128C30.6517 8.66 31.0057 8.276 31.4377 7.976C31.8697 7.676 32.3497 7.46 32.8777 7.328C33.4177 7.184 33.9757 7.112 34.5517 7.112C35.1037 7.112 35.6317 7.172 36.1357 7.292C36.6397 7.412 37.0897 7.61 37.4857 7.886C37.8937 8.15 38.2177 8.504 38.4577 8.948C38.6977 9.392 38.8177 9.926 38.8177 10.55C38.8177 10.934 38.7517 11.294 38.6197 11.63C38.4997 11.966 38.3197 12.266 38.0797 12.53C37.8517 12.782 37.5817 12.992 37.2697 13.16C37.7377 13.292 38.1217 13.508 38.4217 13.808C38.7217 14.108 38.9437 14.462 39.0877 14.87C39.2437 15.278 39.3217 15.716 39.3217 16.184C39.3217 16.952 39.1777 17.594 38.8897 18.11C38.6137 18.614 38.2417 19.016 37.7737 19.316C37.3057 19.604 36.7897 19.814 36.2257 19.946C35.6617 20.066 35.0977 20.126 34.5337 20.126Z" fill="white"/>
</svg>
