<svg width="32" height="28" viewBox="0 0 32 28" fill="none" xmlns="http://www.w3.org/2000/svg">
<rect x="0.136719" width="31" height="28" rx="8" fill="#0862EE"/>
<path d="M11.4249 20V17.876L14.9529 14.942C15.2049 14.726 15.4929 14.486 15.8169 14.222C16.1529 13.946 16.4709 13.652 16.7709 13.34C17.0829 13.028 17.3349 12.698 17.5269 12.35C17.7309 12.002 17.8329 11.642 17.8329 11.27C17.8329 10.754 17.6709 10.334 17.3469 10.01C17.0349 9.686 16.5729 9.524 15.9609 9.524C15.3849 9.524 14.9289 9.656 14.5929 9.92C14.2689 10.172 14.0649 10.496 13.9809 10.892H11.4969C11.5689 10.04 11.8209 9.338 12.2529 8.786C12.6969 8.222 13.2549 7.802 13.9269 7.526C14.5989 7.25 15.3069 7.112 16.0509 7.112C16.8549 7.112 17.5869 7.262 18.2469 7.562C18.9069 7.862 19.4289 8.3 19.8129 8.876C20.1969 9.44 20.3889 10.142 20.3889 10.982C20.3889 11.702 20.2509 12.356 19.9749 12.944C19.7109 13.52 19.3449 14.06 18.8769 14.564C18.4089 15.056 17.8809 15.53 17.2929 15.986L15.2769 17.624H20.3709V20H11.4249Z" fill="white"/>
</svg>
