<svg width="43" height="28" viewBox="0 0 43 28" fill="none" xmlns="http://www.w3.org/2000/svg">
<rect x="0.136719" width="42" height="28" rx="8" fill="#0862EE"/>
<path d="M11.3858 20V17.876L14.9138 14.942C15.1658 14.726 15.4538 14.486 15.7778 14.222C16.1138 13.946 16.4318 13.652 16.7318 13.34C17.0438 13.028 17.2958 12.698 17.4878 12.35C17.6918 12.002 17.7938 11.642 17.7938 11.27C17.7938 10.754 17.6318 10.334 17.3078 10.01C16.9958 9.686 16.5338 9.524 15.9218 9.524C15.3458 9.524 14.8898 9.656 14.5538 9.92C14.2298 10.172 14.0258 10.496 13.9418 10.892H11.4578C11.5298 10.04 11.7818 9.338 12.2138 8.786C12.6578 8.222 13.2158 7.802 13.8878 7.526C14.5598 7.25 15.2678 7.112 16.0118 7.112C16.8158 7.112 17.5478 7.262 18.2078 7.562C18.8678 7.862 19.3898 8.3 19.7738 8.876C20.1578 9.44 20.3498 10.142 20.3498 10.982C20.3498 11.702 20.2118 12.356 19.9358 12.944C19.6718 13.52 19.3058 14.06 18.8378 14.564C18.3698 15.056 17.8418 15.53 17.2538 15.986L15.2378 17.624H20.3318V20H11.3858ZM26.5337 20.126C25.9217 20.126 25.3337 20.054 24.7697 19.91C24.2057 19.766 23.6897 19.538 23.2217 19.226C22.7537 18.914 22.3637 18.518 22.0517 18.038C21.7397 17.546 21.5477 16.958 21.4757 16.274H24.0317C24.1157 16.61 24.2777 16.892 24.5177 17.12C24.7697 17.336 25.0697 17.492 25.4177 17.588C25.7777 17.684 26.1557 17.732 26.5517 17.732C26.8157 17.732 27.0737 17.708 27.3257 17.66C27.5897 17.612 27.8237 17.528 28.0277 17.408C28.2437 17.288 28.4117 17.126 28.5317 16.922C28.6517 16.718 28.7117 16.46 28.7117 16.148C28.7117 15.86 28.6577 15.62 28.5497 15.428C28.4417 15.236 28.2977 15.08 28.1177 14.96C27.9377 14.84 27.7217 14.756 27.4697 14.708C27.2297 14.66 26.9717 14.636 26.6957 14.636H25.2197V12.44H26.2097C26.5217 12.44 26.8037 12.41 27.0557 12.35C27.3077 12.278 27.5177 12.182 27.6857 12.062C27.8657 11.93 28.0037 11.774 28.0997 11.594C28.1957 11.402 28.2437 11.186 28.2437 10.946C28.2437 10.586 28.1657 10.304 28.0097 10.1C27.8537 9.884 27.6377 9.728 27.3617 9.632C27.0857 9.536 26.7677 9.488 26.4077 9.488C26.0717 9.488 25.7537 9.542 25.4537 9.65C25.1657 9.746 24.9257 9.89 24.7337 10.082C24.5417 10.274 24.4157 10.508 24.3557 10.784H21.8537C21.9257 10.136 22.0997 9.584 22.3757 9.128C22.6517 8.66 23.0057 8.276 23.4377 7.976C23.8697 7.676 24.3497 7.46 24.8777 7.328C25.4177 7.184 25.9757 7.112 26.5517 7.112C27.1037 7.112 27.6317 7.172 28.1357 7.292C28.6397 7.412 29.0897 7.61 29.4857 7.886C29.8937 8.15 30.2177 8.504 30.4577 8.948C30.6977 9.392 30.8177 9.926 30.8177 10.55C30.8177 10.934 30.7517 11.294 30.6197 11.63C30.4997 11.966 30.3197 12.266 30.0797 12.53C29.8517 12.782 29.5817 12.992 29.2697 13.16C29.7377 13.292 30.1217 13.508 30.4217 13.808C30.7217 14.108 30.9437 14.462 31.0877 14.87C31.2437 15.278 31.3217 15.716 31.3217 16.184C31.3217 16.952 31.1777 17.594 30.8897 18.11C30.6137 18.614 30.2417 19.016 29.7737 19.316C29.3057 19.604 28.7897 19.814 28.2257 19.946C27.6617 20.066 27.0977 20.126 26.5337 20.126Z" fill="white"/>
</svg>
