<svg width="125" height="284" viewBox="0 0 125 284" fill="none" xmlns="http://www.w3.org/2000/svg">
<rect x="30" width="60" height="284" fill="#F0F2FE"/>
<path d="M76 53H44C41.7909 53 40 54.7909 40 57V81C40 83.2091 41.7909 85 44 85H76C78.2091 85 80 83.2091 80 81V57C80 54.7909 78.2091 53 76 53Z" stroke="#0862EE" stroke-width="4" stroke-linecap="round" stroke-linejoin="round"/>
<path d="M80 59L62.06 70.4C61.4425 70.7869 60.7286 70.992 60 70.992C59.2714 70.992 58.5575 70.7869 57.94 70.4L40 59" stroke="#0862EE" stroke-width="4" stroke-linecap="round" stroke-linejoin="round"/>
<path d="M13.3081 173.28C14.1481 173.28 14.8881 173.413 15.5281 173.68C16.1681 173.947 16.7081 174.32 17.1481 174.8C17.6015 175.267 17.9415 175.833 18.1681 176.5C18.3948 177.167 18.5081 177.907 18.5081 178.72C18.5081 179.547 18.3948 180.293 18.1681 180.96C17.9548 181.613 17.6281 182.18 17.1881 182.66C16.7481 183.14 16.2015 183.507 15.5481 183.76C14.9081 184.013 14.1615 184.14 13.3081 184.14C12.4681 184.14 11.7281 184.013 11.0881 183.76C10.4481 183.493 9.90813 183.127 9.46813 182.66C9.04146 182.18 8.71479 181.607 8.48813 180.94C8.27479 180.273 8.16813 179.533 8.16813 178.72C8.16813 177.907 8.27479 177.167 8.48813 176.5C8.71479 175.833 9.04813 175.267 9.48813 174.8C9.92813 174.32 10.4681 173.947 11.1081 173.68C11.7481 173.413 12.4815 173.28 13.3081 173.28ZM13.3081 182.16C13.8281 182.16 14.2681 182.073 14.6281 181.9C15.0015 181.713 15.3015 181.467 15.5281 181.16C15.7681 180.853 15.9415 180.493 16.0481 180.08C16.1681 179.667 16.2281 179.22 16.2281 178.74C16.2281 178.26 16.1681 177.813 16.0481 177.4C15.9415 176.973 15.7681 176.607 15.5281 176.3C15.3015 175.993 15.0015 175.753 14.6281 175.58C14.2681 175.407 13.8281 175.32 13.3081 175.32C12.8015 175.32 12.3615 175.407 11.9881 175.58C11.6281 175.753 11.3281 175.993 11.0881 176.3C10.8615 176.607 10.6881 176.973 10.5681 177.4C10.4615 177.813 10.4081 178.26 10.4081 178.74C10.4081 179.22 10.4615 179.667 10.5681 180.08C10.6881 180.493 10.8615 180.853 11.0881 181.16C11.3281 181.467 11.6281 181.713 11.9881 181.9C12.3615 182.073 12.8015 182.16 13.3081 182.16ZM22.5752 175.64C23.0018 175.107 23.5352 174.727 24.1752 174.5C24.8152 174.26 25.4618 174.14 26.1152 174.14C26.8352 174.14 27.4752 174.253 28.0352 174.48C28.6085 174.707 29.0952 175.027 29.4952 175.44C29.8952 175.853 30.2018 176.353 30.4152 176.94C30.6285 177.513 30.7352 178.16 30.7352 178.88C30.7352 179.653 30.6152 180.367 30.3752 181.02C30.1485 181.673 29.8085 182.233 29.3552 182.7C28.9152 183.153 28.3752 183.507 27.7352 183.76C27.1085 184.013 26.3952 184.14 25.5952 184.14C24.5418 184.127 23.6752 183.913 22.9952 183.5C22.3285 183.087 21.8018 182.553 21.4152 181.9C21.0285 181.247 20.7618 180.513 20.6152 179.7C20.4685 178.873 20.3952 178.04 20.3952 177.2C20.3952 176.36 20.4552 175.5 20.5752 174.62C20.7085 173.74 20.9685 172.96 21.3552 172.28C21.6752 171.747 22.0418 171.327 22.4552 171.02C22.8818 170.7 23.3485 170.46 23.8552 170.3C24.3618 170.127 24.9018 170 25.4752 169.92C26.0485 169.84 26.6418 169.76 27.2552 169.68C27.7218 169.627 28.1952 169.573 28.6752 169.52C29.1685 169.467 29.6485 169.36 30.1152 169.2V171.38C29.8752 171.487 29.5418 171.573 29.1152 171.64C28.6885 171.693 28.2352 171.747 27.7552 171.8C27.2752 171.84 26.8018 171.887 26.3352 171.94C25.8685 171.98 25.4552 172.027 25.0952 172.08C24.6685 172.147 24.2885 172.293 23.9552 172.52C23.6352 172.733 23.3752 173 23.1752 173.32C22.9752 173.627 22.8285 173.987 22.7352 174.4C22.6418 174.8 22.5885 175.213 22.5752 175.64ZM25.6552 182.16C26.1085 182.16 26.5085 182.073 26.8552 181.9C27.2152 181.727 27.5152 181.507 27.7552 181.24C27.9952 180.96 28.1752 180.64 28.2952 180.28C28.4152 179.907 28.4752 179.52 28.4752 179.12C28.4752 178.707 28.4085 178.32 28.2752 177.96C28.1552 177.587 27.9752 177.273 27.7352 177.02C27.5085 176.753 27.2285 176.547 26.8952 176.4C26.5618 176.253 26.1818 176.18 25.7552 176.18C25.3152 176.18 24.9152 176.253 24.5552 176.4C24.2085 176.533 23.9085 176.733 23.6552 177C23.4152 177.253 23.2218 177.56 23.0752 177.92C22.9285 178.28 22.8485 178.667 22.8352 179.08C22.8352 179.48 22.8885 179.867 22.9952 180.24C23.1018 180.6 23.2685 180.92 23.4952 181.2C23.7352 181.48 24.0285 181.713 24.3752 181.9C24.7352 182.073 25.1618 182.16 25.6552 182.16ZM35.0083 188.1H32.7283V173.46H34.8883L35.0083 174.96C35.3949 174.413 35.8949 174 36.5083 173.72C37.1349 173.427 37.7883 173.28 38.4683 173.28C39.1883 173.28 39.8349 173.413 40.4083 173.68C40.9816 173.933 41.4683 174.293 41.8683 174.76C42.2816 175.227 42.5883 175.793 42.7883 176.46C43.0016 177.113 43.1083 177.86 43.1083 178.7C43.1083 179.487 43.0083 180.213 42.8083 180.88C42.6083 181.547 42.3083 182.127 41.9083 182.62C41.5216 183.1 41.0349 183.473 40.4483 183.74C39.8749 184.007 39.1749 184.14 38.3483 184.14C37.7083 184.14 37.0949 184.04 36.5083 183.84C35.9349 183.627 35.4349 183.28 35.0083 182.8V188.1ZM37.9883 182.16C38.4816 182.16 38.9083 182.073 39.2683 181.9C39.6283 181.713 39.9216 181.467 40.1483 181.16C40.3883 180.853 40.5616 180.493 40.6683 180.08C40.7883 179.667 40.8483 179.22 40.8483 178.74C40.8483 178.26 40.7883 177.813 40.6683 177.4C40.5616 176.973 40.3883 176.607 40.1483 176.3C39.9216 175.993 39.6216 175.753 39.2483 175.58C38.8883 175.407 38.4549 175.32 37.9483 175.32C37.4949 175.32 37.0749 175.413 36.6883 175.6C36.3149 175.787 36.0016 176.033 35.7483 176.34C35.4949 176.647 35.3016 177.013 35.1683 177.44C35.0483 177.853 34.9883 178.28 34.9883 178.72C34.9883 179.2 35.0483 179.653 35.1683 180.08C35.2883 180.493 35.4683 180.853 35.7083 181.16C35.9616 181.453 36.2749 181.693 36.6483 181.88C37.0216 182.067 37.4683 182.16 37.9883 182.16ZM51.9111 182.7C51.5644 183.193 51.1044 183.56 50.5311 183.8C49.9578 184.027 49.3178 184.14 48.6111 184.14C48.0511 184.14 47.5378 184.073 47.0711 183.94C46.6178 183.807 46.2178 183.607 45.8711 183.34C45.5244 183.06 45.2511 182.72 45.0511 182.32C44.8511 181.907 44.7511 181.44 44.7511 180.92C44.7511 180.347 44.8644 179.86 45.0911 179.46C45.3178 179.047 45.6244 178.713 46.0111 178.46C46.4111 178.207 46.8778 178.02 47.4111 177.9C47.9444 177.767 48.5044 177.7 49.0911 177.7H51.7911C51.7911 176.927 51.6178 176.327 51.2711 175.9C50.9244 175.473 50.3178 175.253 49.4511 175.24C48.9444 175.24 48.5044 175.327 48.1311 175.5C47.7711 175.673 47.5311 175.96 47.4111 176.36H45.0711C45.1511 175.8 45.3311 175.327 45.6111 174.94C45.9044 174.553 46.2511 174.233 46.6511 173.98C47.0644 173.727 47.5178 173.547 48.0111 173.44C48.5178 173.333 49.0244 173.28 49.5311 173.28C50.1844 173.28 50.7911 173.367 51.3511 173.54C51.9111 173.713 52.3978 174.007 52.8111 174.42C53.2778 174.9 53.5911 175.473 53.7511 176.14C53.9111 176.807 53.9911 177.533 53.9911 178.32V184H52.0111L51.9111 182.7ZM51.7911 179.32H49.5911C49.2044 179.32 48.8178 179.353 48.4311 179.42C48.0444 179.473 47.7111 179.613 47.4311 179.84C47.1644 180.053 47.0311 180.367 47.0311 180.78C47.0311 181.287 47.2111 181.673 47.5711 181.94C47.9444 182.193 48.3978 182.32 48.9311 182.32C49.3444 182.32 49.7244 182.267 50.0711 182.16C50.4311 182.053 50.7378 181.88 50.9911 181.64C51.2444 181.387 51.4378 181.073 51.5711 180.7C51.7178 180.313 51.7911 179.853 51.7911 179.32ZM56.4392 173.46H58.7192V182.06H62.2392V173.46H64.4992V182.06H68.0392V173.46H70.3192V182.06H71.7192V187.08H69.5192V184H56.4392V173.46ZM75.1747 179.5C75.2014 179.887 75.2814 180.247 75.4147 180.58C75.548 180.913 75.728 181.207 75.9547 181.46C76.1814 181.7 76.4614 181.893 76.7947 182.04C77.1414 182.187 77.5414 182.26 77.9947 182.26C78.4747 182.26 78.9147 182.173 79.3147 182C79.728 181.827 80.028 181.527 80.2147 181.1H82.5547C82.4214 181.633 82.2014 182.093 81.8947 182.48C81.6014 182.867 81.248 183.187 80.8347 183.44C80.4347 183.68 79.988 183.86 79.4947 183.98C79.0147 184.087 78.5014 184.14 77.9547 184.14C77.1147 184.14 76.3747 184.013 75.7347 183.76C75.108 183.507 74.5814 183.14 74.1547 182.66C73.728 182.18 73.408 181.613 73.1947 180.96C72.9947 180.293 72.8947 179.547 72.8947 178.72C72.8947 177.92 73.008 177.193 73.2347 176.54C73.4614 175.873 73.788 175.3 74.2147 174.82C74.6547 174.34 75.1814 173.967 75.7947 173.7C76.408 173.42 77.108 173.28 77.8947 173.28C78.7214 173.28 79.4347 173.42 80.0347 173.7C80.6347 173.967 81.1347 174.333 81.5347 174.8C81.948 175.267 82.2547 175.813 82.4547 176.44C82.6547 177.067 82.7547 177.747 82.7547 178.48C82.7547 178.827 82.7347 179.167 82.6947 179.5H75.1747ZM80.5347 177.78C80.4947 176.953 80.2347 176.327 79.7547 175.9C79.288 175.473 78.6747 175.26 77.9147 175.26C77.488 175.26 77.1147 175.327 76.7947 175.46C76.4747 175.593 76.2014 175.773 75.9747 176C75.7614 176.227 75.588 176.493 75.4547 176.8C75.3214 177.107 75.2347 177.433 75.1947 177.78H80.5347ZM84.8181 184V173.46H87.0981V177.8H91.7781V173.46H94.0581V184H91.7781V179.78H87.0981V184H84.8181ZM98.6569 184H96.5369V173.46H98.8169V180.7L104.177 173.46H106.237V184H103.957V176.9C103.944 176.927 102.177 179.293 98.6569 184ZM113.744 170.64C114.211 170.64 114.598 170.533 114.904 170.32C115.211 170.107 115.384 169.767 115.424 169.3H117.424C117.331 170.34 116.958 171.1 116.304 171.58C115.664 172.06 114.811 172.3 113.744 172.3C112.651 172.3 111.778 172.06 111.124 171.58C110.484 171.1 110.124 170.34 110.044 169.3H112.044C112.098 169.767 112.271 170.107 112.564 170.32C112.871 170.533 113.264 170.64 113.744 170.64ZM110.844 184H108.724V173.46H111.004V180.7L116.364 173.46H118.424V184H116.144V176.92C116.131 176.947 114.364 179.307 110.844 184ZM19.5154 206V195.46H21.7754V199.76H23.3954L26.0954 195.46H28.6954L25.3554 200.48L28.9554 206H26.3154L23.5354 201.74H21.7754V206H19.5154ZM31.218 200.98C31.2847 200.073 31.3247 199.173 31.338 198.28C31.3647 197.373 31.3914 196.433 31.418 195.46H39.298V206H36.998V197.44H33.538C33.5114 198.093 33.4847 198.747 33.458 199.4C33.4447 200.04 33.418 200.68 33.378 201.32C33.3647 201.56 33.338 201.847 33.298 202.18C33.2714 202.5 33.2314 202.827 33.178 203.16C33.1247 203.48 33.0447 203.787 32.938 204.08C32.8314 204.36 32.698 204.62 32.538 204.86C32.258 205.26 31.8847 205.553 31.418 205.74C30.9647 205.913 30.438 206 29.838 206H29.278V204.04C29.678 204.04 29.998 203.947 30.238 203.76C30.4914 203.56 30.678 203.313 30.798 203.02C30.9314 202.713 31.0247 202.387 31.078 202.04C31.1447 201.68 31.1914 201.327 31.218 200.98ZM43.901 206H41.781V195.46H44.061V202.7L49.421 195.46H51.481V206H49.201V198.9C49.1877 198.927 47.421 201.293 43.901 206ZM55.8485 201.5C55.8752 201.887 55.9552 202.247 56.0885 202.58C56.2218 202.913 56.4018 203.207 56.6285 203.46C56.8552 203.7 57.1352 203.893 57.4685 204.04C57.8152 204.187 58.2152 204.26 58.6685 204.26C59.1485 204.26 59.5885 204.173 59.9885 204C60.4018 203.827 60.7018 203.527 60.8885 203.1H63.2285C63.0952 203.633 62.8752 204.093 62.5685 204.48C62.2752 204.867 61.9218 205.187 61.5085 205.44C61.1085 205.68 60.6618 205.86 60.1685 205.98C59.6885 206.087 59.1752 206.14 58.6285 206.14C57.7885 206.14 57.0485 206.013 56.4085 205.76C55.7818 205.507 55.2552 205.14 54.8285 204.66C54.4018 204.18 54.0818 203.613 53.8685 202.96C53.6685 202.293 53.5685 201.547 53.5685 200.72C53.5685 199.92 53.6818 199.193 53.9085 198.54C54.1352 197.873 54.4618 197.3 54.8885 196.82C55.3285 196.34 55.8552 195.967 56.4685 195.7C57.0818 195.42 57.7818 195.28 58.5685 195.28C59.3952 195.28 60.1085 195.42 60.7085 195.7C61.3085 195.967 61.8085 196.333 62.2085 196.8C62.6218 197.267 62.9285 197.813 63.1285 198.44C63.3285 199.067 63.4285 199.747 63.4285 200.48C63.4285 200.827 63.4085 201.167 63.3685 201.5H55.8485ZM61.2085 199.78C61.1685 198.953 60.9085 198.327 60.4285 197.9C59.9618 197.473 59.3485 197.26 58.5885 197.26C58.1618 197.26 57.7885 197.327 57.4685 197.46C57.1485 197.593 56.8752 197.773 56.6485 198C56.4352 198.227 56.2618 198.493 56.1285 198.8C55.9952 199.107 55.9085 199.433 55.8685 199.78H61.2085ZM65.492 206V195.46H67.772V199.8H72.452V195.46H74.732V206H72.452V201.78H67.772V206H65.492ZM85.4307 195.46V197.44H81.8707V206H79.6107V197.44H76.0507V195.46H85.4307ZM91.482 195.28C92.322 195.28 93.062 195.413 93.702 195.68C94.342 195.947 94.882 196.32 95.322 196.8C95.7753 197.267 96.1153 197.833 96.342 198.5C96.5686 199.167 96.682 199.907 96.682 200.72C96.682 201.547 96.5686 202.293 96.342 202.96C96.1286 203.613 95.802 204.18 95.362 204.66C94.922 205.14 94.3753 205.507 93.722 205.76C93.082 206.013 92.3353 206.14 91.482 206.14C90.642 206.14 89.902 206.013 89.262 205.76C88.622 205.493 88.082 205.127 87.642 204.66C87.2153 204.18 86.8886 203.607 86.662 202.94C86.4486 202.273 86.342 201.533 86.342 200.72C86.342 199.907 86.4486 199.167 86.662 198.5C86.8886 197.833 87.222 197.267 87.662 196.8C88.102 196.32 88.642 195.947 89.282 195.68C89.922 195.413 90.6553 195.28 91.482 195.28ZM91.482 204.16C92.002 204.16 92.442 204.073 92.802 203.9C93.1753 203.713 93.4753 203.467 93.702 203.16C93.942 202.853 94.1153 202.493 94.222 202.08C94.342 201.667 94.402 201.22 94.402 200.74C94.402 200.26 94.342 199.813 94.222 199.4C94.1153 198.973 93.942 198.607 93.702 198.3C93.4753 197.993 93.1753 197.753 92.802 197.58C92.442 197.407 92.002 197.32 91.482 197.32C90.9753 197.32 90.5353 197.407 90.162 197.58C89.802 197.753 89.502 197.993 89.262 198.3C89.0353 198.607 88.862 198.973 88.742 199.4C88.6353 199.813 88.582 200.26 88.582 200.74C88.582 201.22 88.6353 201.667 88.742 202.08C88.862 202.493 89.0353 202.853 89.262 203.16C89.502 203.467 89.802 203.713 90.162 203.9C90.5353 204.073 90.9753 204.16 91.482 204.16ZM98.7537 195.46H103.254C103.72 195.46 104.194 195.487 104.674 195.54C105.154 195.58 105.587 195.693 105.974 195.88C106.374 196.067 106.694 196.34 106.934 196.7C107.187 197.047 107.32 197.52 107.334 198.12C107.334 198.587 107.227 199.02 107.014 199.42C106.8 199.82 106.46 200.147 105.994 200.4C106.634 200.573 107.1 200.88 107.394 201.32C107.7 201.747 107.854 202.26 107.854 202.86C107.854 203.42 107.74 203.907 107.514 204.32C107.287 204.72 106.987 205.047 106.614 205.3C106.24 205.54 105.807 205.72 105.314 205.84C104.82 205.947 104.3 206 103.754 206H98.7537V195.46ZM101.054 197.36V199.78H102.434C102.74 199.78 103.054 199.78 103.374 199.78C103.707 199.767 104 199.72 104.254 199.64C104.52 199.56 104.734 199.433 104.894 199.26C105.067 199.087 105.154 198.84 105.154 198.52C105.154 198.24 105.087 198.027 104.954 197.88C104.834 197.72 104.68 197.6 104.494 197.52C104.307 197.44 104.094 197.393 103.854 197.38C103.627 197.367 103.414 197.36 103.214 197.36H101.054ZM103.374 204.08C103.64 204.08 103.9 204.067 104.154 204.04C104.42 204.013 104.654 203.953 104.854 203.86C105.067 203.753 105.24 203.62 105.374 203.46C105.507 203.287 105.574 203.06 105.574 202.78C105.574 202.273 105.414 201.933 105.094 201.76C104.787 201.587 104.407 201.5 103.954 201.5H101.054V204.08H103.374ZM11.2671 217.28C12.1071 217.28 12.8471 217.413 13.4871 217.68C14.1271 217.947 14.6671 218.32 15.1071 218.8C15.5604 219.267 15.9004 219.833 16.1271 220.5C16.3538 221.167 16.4671 221.907 16.4671 222.72C16.4671 223.547 16.3538 224.293 16.1271 224.96C15.9138 225.613 15.5871 226.18 15.1471 226.66C14.7071 227.14 14.1604 227.507 13.5071 227.76C12.8671 228.013 12.1204 228.14 11.2671 228.14C10.4271 228.14 9.68711 228.013 9.04711 227.76C8.40711 227.493 7.86711 227.127 7.42711 226.66C7.00044 226.18 6.67378 225.607 6.44711 224.94C6.23378 224.273 6.12711 223.533 6.12711 222.72C6.12711 221.907 6.23378 221.167 6.44711 220.5C6.67378 219.833 7.00711 219.267 7.44711 218.8C7.88711 218.32 8.42711 217.947 9.06711 217.68C9.70711 217.413 10.4404 217.28 11.2671 217.28ZM11.2671 226.16C11.7871 226.16 12.2271 226.073 12.5871 225.9C12.9604 225.713 13.2604 225.467 13.4871 225.16C13.7271 224.853 13.9004 224.493 14.0071 224.08C14.1271 223.667 14.1871 223.22 14.1871 222.74C14.1871 222.26 14.1271 221.813 14.0071 221.4C13.9004 220.973 13.7271 220.607 13.4871 220.3C13.2604 219.993 12.9604 219.753 12.5871 219.58C12.2271 219.407 11.7871 219.32 11.2671 219.32C10.7604 219.32 10.3204 219.407 9.94711 219.58C9.58711 219.753 9.28711 219.993 9.04711 220.3C8.82044 220.607 8.64711 220.973 8.52711 221.4C8.42044 221.813 8.36711 222.26 8.36711 222.74C8.36711 223.22 8.42044 223.667 8.52711 224.08C8.64711 224.493 8.82044 224.853 9.04711 225.16C9.28711 225.467 9.58711 225.713 9.94711 225.9C10.3204 226.073 10.7604 226.16 11.2671 226.16ZM20.5341 219.64C20.9608 219.107 21.4941 218.727 22.1341 218.5C22.7741 218.26 23.4208 218.14 24.0741 218.14C24.7941 218.14 25.4341 218.253 25.9941 218.48C26.5675 218.707 27.0541 219.027 27.4541 219.44C27.8541 219.853 28.1608 220.353 28.3741 220.94C28.5875 221.513 28.6941 222.16 28.6941 222.88C28.6941 223.653 28.5741 224.367 28.3341 225.02C28.1075 225.673 27.7675 226.233 27.3141 226.7C26.8741 227.153 26.3341 227.507 25.6941 227.76C25.0675 228.013 24.3541 228.14 23.5541 228.14C22.5008 228.127 21.6341 227.913 20.9541 227.5C20.2875 227.087 19.7608 226.553 19.3741 225.9C18.9875 225.247 18.7208 224.513 18.5741 223.7C18.4275 222.873 18.3541 222.04 18.3541 221.2C18.3541 220.36 18.4141 219.5 18.5341 218.62C18.6675 217.74 18.9275 216.96 19.3141 216.28C19.6341 215.747 20.0008 215.327 20.4141 215.02C20.8408 214.7 21.3075 214.46 21.8141 214.3C22.3208 214.127 22.8608 214 23.4341 213.92C24.0075 213.84 24.6008 213.76 25.2141 213.68C25.6808 213.627 26.1541 213.573 26.6341 213.52C27.1275 213.467 27.6075 213.36 28.0741 213.2V215.38C27.8341 215.487 27.5008 215.573 27.0741 215.64C26.6475 215.693 26.1941 215.747 25.7141 215.8C25.2341 215.84 24.7608 215.887 24.2941 215.94C23.8275 215.98 23.4141 216.027 23.0541 216.08C22.6275 216.147 22.2475 216.293 21.9141 216.52C21.5941 216.733 21.3341 217 21.1341 217.32C20.9341 217.627 20.7875 217.987 20.6941 218.4C20.6008 218.8 20.5475 219.213 20.5341 219.64ZM23.6141 226.16C24.0675 226.16 24.4675 226.073 24.8141 225.9C25.1741 225.727 25.4741 225.507 25.7141 225.24C25.9541 224.96 26.1341 224.64 26.2541 224.28C26.3741 223.907 26.4341 223.52 26.4341 223.12C26.4341 222.707 26.3675 222.32 26.2341 221.96C26.1141 221.587 25.9341 221.273 25.6941 221.02C25.4675 220.753 25.1875 220.547 24.8541 220.4C24.5208 220.253 24.1408 220.18 23.7141 220.18C23.2741 220.18 22.8741 220.253 22.5141 220.4C22.1675 220.533 21.8675 220.733 21.6141 221C21.3741 221.253 21.1808 221.56 21.0341 221.92C20.8875 222.28 20.8075 222.667 20.7941 223.08C20.7941 223.48 20.8475 223.867 20.9541 224.24C21.0608 224.6 21.2275 224.92 21.4541 225.2C21.6941 225.48 21.9875 225.713 22.3341 225.9C22.6941 226.073 23.1208 226.16 23.6141 226.16ZM32.9673 232.1H30.6873V217.46H32.8473L32.9673 218.96C33.3539 218.413 33.8539 218 34.4673 217.72C35.0939 217.427 35.7473 217.28 36.4273 217.28C37.1473 217.28 37.7939 217.413 38.3673 217.68C38.9406 217.933 39.4273 218.293 39.8273 218.76C40.2406 219.227 40.5473 219.793 40.7473 220.46C40.9606 221.113 41.0673 221.86 41.0673 222.7C41.0673 223.487 40.9673 224.213 40.7673 224.88C40.5673 225.547 40.2673 226.127 39.8673 226.62C39.4806 227.1 38.9939 227.473 38.4073 227.74C37.8339 228.007 37.1339 228.14 36.3073 228.14C35.6673 228.14 35.0539 228.04 34.4673 227.84C33.8939 227.627 33.3939 227.28 32.9673 226.8V232.1ZM35.9473 226.16C36.4406 226.16 36.8673 226.073 37.2273 225.9C37.5873 225.713 37.8806 225.467 38.1073 225.16C38.3473 224.853 38.5206 224.493 38.6273 224.08C38.7473 223.667 38.8073 223.22 38.8073 222.74C38.8073 222.26 38.7473 221.813 38.6273 221.4C38.5206 220.973 38.3473 220.607 38.1073 220.3C37.8806 219.993 37.5806 219.753 37.2073 219.58C36.8473 219.407 36.4139 219.32 35.9073 219.32C35.4539 219.32 35.0339 219.413 34.6473 219.6C34.2739 219.787 33.9606 220.033 33.7073 220.34C33.4539 220.647 33.2606 221.013 33.1273 221.44C33.0073 221.853 32.9473 222.28 32.9473 222.72C32.9473 223.2 33.0073 223.653 33.1273 224.08C33.2473 224.493 33.4273 224.853 33.6673 225.16C33.9206 225.453 34.2339 225.693 34.6073 225.88C34.9806 226.067 35.4273 226.16 35.9473 226.16ZM49.8701 226.7C49.5234 227.193 49.0634 227.56 48.4901 227.8C47.9167 228.027 47.2767 228.14 46.5701 228.14C46.0101 228.14 45.4967 228.073 45.0301 227.94C44.5767 227.807 44.1767 227.607 43.8301 227.34C43.4834 227.06 43.2101 226.72 43.0101 226.32C42.8101 225.907 42.7101 225.44 42.7101 224.92C42.7101 224.347 42.8234 223.86 43.0501 223.46C43.2767 223.047 43.5834 222.713 43.9701 222.46C44.3701 222.207 44.8367 222.02 45.3701 221.9C45.9034 221.767 46.4634 221.7 47.0501 221.7H49.7501C49.7501 220.927 49.5767 220.327 49.2301 219.9C48.8834 219.473 48.2767 219.253 47.4101 219.24C46.9034 219.24 46.4634 219.327 46.0901 219.5C45.7301 219.673 45.4901 219.96 45.3701 220.36H43.0301C43.1101 219.8 43.2901 219.327 43.5701 218.94C43.8634 218.553 44.2101 218.233 44.6101 217.98C45.0234 217.727 45.4767 217.547 45.9701 217.44C46.4767 217.333 46.9834 217.28 47.4901 217.28C48.1434 217.28 48.7501 217.367 49.3101 217.54C49.8701 217.713 50.3567 218.007 50.7701 218.42C51.2367 218.9 51.5501 219.473 51.7101 220.14C51.8701 220.807 51.9501 221.533 51.9501 222.32V228H49.9701L49.8701 226.7ZM49.7501 223.32H47.5501C47.1634 223.32 46.7767 223.353 46.3901 223.42C46.0034 223.473 45.6701 223.613 45.3901 223.84C45.1234 224.053 44.9901 224.367 44.9901 224.78C44.9901 225.287 45.1701 225.673 45.5301 225.94C45.9034 226.193 46.3567 226.32 46.8901 226.32C47.3034 226.32 47.6834 226.267 48.0301 226.16C48.3901 226.053 48.6967 225.88 48.9501 225.64C49.2034 225.387 49.3967 225.073 49.5301 224.7C49.6767 224.313 49.7501 223.853 49.7501 223.32ZM56.1982 219.64C56.6249 219.107 57.1582 218.727 57.7982 218.5C58.4382 218.26 59.0849 218.14 59.7382 218.14C60.4582 218.14 61.0982 218.253 61.6582 218.48C62.2315 218.707 62.7182 219.027 63.1182 219.44C63.5182 219.853 63.8249 220.353 64.0382 220.94C64.2515 221.513 64.3582 222.16 64.3582 222.88C64.3582 223.653 64.2382 224.367 63.9982 225.02C63.7715 225.673 63.4315 226.233 62.9782 226.7C62.5382 227.153 61.9982 227.507 61.3582 227.76C60.7315 228.013 60.0182 228.14 59.2182 228.14C58.1649 228.127 57.2982 227.913 56.6182 227.5C55.9515 227.087 55.4249 226.553 55.0382 225.9C54.6515 225.247 54.3849 224.513 54.2382 223.7C54.0915 222.873 54.0182 222.04 54.0182 221.2C54.0182 220.36 54.0782 219.5 54.1982 218.62C54.3315 217.74 54.5915 216.96 54.9782 216.28C55.2982 215.747 55.6649 215.327 56.0782 215.02C56.5049 214.7 56.9715 214.46 57.4782 214.3C57.9849 214.127 58.5249 214 59.0982 213.92C59.6715 213.84 60.2649 213.76 60.8782 213.68C61.3449 213.627 61.8182 213.573 62.2982 213.52C62.7915 213.467 63.2715 213.36 63.7382 213.2V215.38C63.4982 215.487 63.1649 215.573 62.7382 215.64C62.3115 215.693 61.8582 215.747 61.3782 215.8C60.8982 215.84 60.4249 215.887 59.9582 215.94C59.4915 215.98 59.0782 216.027 58.7182 216.08C58.2915 216.147 57.9115 216.293 57.5782 216.52C57.2582 216.733 56.9982 217 56.7982 217.32C56.5982 217.627 56.4515 217.987 56.3582 218.4C56.2649 218.8 56.2115 219.213 56.1982 219.64ZM59.2782 226.16C59.7315 226.16 60.1315 226.073 60.4782 225.9C60.8382 225.727 61.1382 225.507 61.3782 225.24C61.6182 224.96 61.7982 224.64 61.9182 224.28C62.0382 223.907 62.0982 223.52 62.0982 223.12C62.0982 222.707 62.0315 222.32 61.8982 221.96C61.7782 221.587 61.5982 221.273 61.3582 221.02C61.1315 220.753 60.8515 220.547 60.5182 220.4C60.1849 220.253 59.8049 220.18 59.3782 220.18C58.9382 220.18 58.5382 220.253 58.1782 220.4C57.8315 220.533 57.5315 220.733 57.2782 221C57.0382 221.253 56.8449 221.56 56.6982 221.92C56.5515 222.28 56.4715 222.667 56.4582 223.08C56.4582 223.48 56.5115 223.867 56.6182 224.24C56.7249 224.6 56.8915 224.92 57.1182 225.2C57.3582 225.48 57.6515 225.713 57.9982 225.9C58.3582 226.073 58.7849 226.16 59.2782 226.16ZM71.0913 217.28C71.9313 217.28 72.6713 217.413 73.3113 217.68C73.9513 217.947 74.4913 218.32 74.9313 218.8C75.3847 219.267 75.7247 219.833 75.9513 220.5C76.178 221.167 76.2913 221.907 76.2913 222.72C76.2913 223.547 76.178 224.293 75.9513 224.96C75.738 225.613 75.4113 226.18 74.9713 226.66C74.5313 227.14 73.9847 227.507 73.3313 227.76C72.6913 228.013 71.9447 228.14 71.0913 228.14C70.2513 228.14 69.5113 228.013 68.8713 227.76C68.2313 227.493 67.6913 227.127 67.2513 226.66C66.8247 226.18 66.498 225.607 66.2713 224.94C66.058 224.273 65.9513 223.533 65.9513 222.72C65.9513 221.907 66.058 221.167 66.2713 220.5C66.498 219.833 66.8313 219.267 67.2713 218.8C67.7113 218.32 68.2513 217.947 68.8913 217.68C69.5313 217.413 70.2647 217.28 71.0913 217.28ZM71.0913 226.16C71.6113 226.16 72.0513 226.073 72.4113 225.9C72.7847 225.713 73.0847 225.467 73.3113 225.16C73.5513 224.853 73.7247 224.493 73.8313 224.08C73.9513 223.667 74.0113 223.22 74.0113 222.74C74.0113 222.26 73.9513 221.813 73.8313 221.4C73.7247 220.973 73.5513 220.607 73.3113 220.3C73.0847 219.993 72.7847 219.753 72.4113 219.58C72.0513 219.407 71.6113 219.32 71.0913 219.32C70.5847 219.32 70.1447 219.407 69.7713 219.58C69.4113 219.753 69.1113 219.993 68.8713 220.3C68.6447 220.607 68.4713 220.973 68.3513 221.4C68.2447 221.813 68.1913 222.26 68.1913 222.74C68.1913 223.22 68.2447 223.667 68.3513 224.08C68.4713 224.493 68.6447 224.853 68.8713 225.16C69.1113 225.467 69.4113 225.713 69.7713 225.9C70.1447 226.073 70.5847 226.16 71.0913 226.16ZM86.583 217.46V219.44H83.023V228H80.763V219.44H77.203V217.46H86.583ZM94.6943 226.7C94.3476 227.193 93.8876 227.56 93.3143 227.8C92.741 228.027 92.101 228.14 91.3943 228.14C90.8343 228.14 90.321 228.073 89.8543 227.94C89.401 227.807 89.001 227.607 88.6543 227.34C88.3076 227.06 88.0343 226.72 87.8343 226.32C87.6343 225.907 87.5343 225.44 87.5343 224.92C87.5343 224.347 87.6476 223.86 87.8743 223.46C88.101 223.047 88.4076 222.713 88.7943 222.46C89.1943 222.207 89.661 222.02 90.1943 221.9C90.7276 221.767 91.2876 221.7 91.8743 221.7H94.5743C94.5743 220.927 94.401 220.327 94.0543 219.9C93.7076 219.473 93.101 219.253 92.2343 219.24C91.7276 219.24 91.2876 219.327 90.9143 219.5C90.5543 219.673 90.3143 219.96 90.1943 220.36H87.8543C87.9343 219.8 88.1143 219.327 88.3943 218.94C88.6876 218.553 89.0343 218.233 89.4343 217.98C89.8476 217.727 90.301 217.547 90.7943 217.44C91.301 217.333 91.8076 217.28 92.3143 217.28C92.9676 217.28 93.5743 217.367 94.1343 217.54C94.6943 217.713 95.181 218.007 95.5943 218.42C96.061 218.9 96.3743 219.473 96.5343 220.14C96.6943 220.807 96.7743 221.533 96.7743 222.32V228H94.7943L94.6943 226.7ZM94.5743 223.32H92.3743C91.9876 223.32 91.601 223.353 91.2143 223.42C90.8276 223.473 90.4943 223.613 90.2143 223.84C89.9476 224.053 89.8143 224.367 89.8143 224.78C89.8143 225.287 89.9943 225.673 90.3543 225.94C90.7276 226.193 91.181 226.32 91.7143 226.32C92.1276 226.32 92.5076 226.267 92.8543 226.16C93.2143 226.053 93.521 225.88 93.7743 225.64C94.0276 225.387 94.221 225.073 94.3543 224.7C94.501 224.313 94.5743 223.853 94.5743 223.32ZM99.2224 228V217.46H101.502V221.8H106.182V217.46H108.462V228H106.182V223.78H101.502V228H99.2224ZM115.681 217.28C116.521 217.28 117.261 217.413 117.901 217.68C118.541 217.947 119.081 218.32 119.521 218.8C119.975 219.267 120.315 219.833 120.541 220.5C120.768 221.167 120.881 221.907 120.881 222.72C120.881 223.547 120.768 224.293 120.541 224.96C120.328 225.613 120.001 226.18 119.561 226.66C119.121 227.14 118.575 227.507 117.921 227.76C117.281 228.013 116.535 228.14 115.681 228.14C114.841 228.14 114.101 228.013 113.461 227.76C112.821 227.493 112.281 227.127 111.841 226.66C111.415 226.18 111.088 225.607 110.861 224.94C110.648 224.273 110.541 223.533 110.541 222.72C110.541 221.907 110.648 221.167 110.861 220.5C111.088 219.833 111.421 219.267 111.861 218.8C112.301 218.32 112.841 217.947 113.481 217.68C114.121 217.413 114.855 217.28 115.681 217.28ZM115.681 226.16C116.201 226.16 116.641 226.073 117.001 225.9C117.375 225.713 117.675 225.467 117.901 225.16C118.141 224.853 118.315 224.493 118.421 224.08C118.541 223.667 118.601 223.22 118.601 222.74C118.601 222.26 118.541 221.813 118.421 221.4C118.315 220.973 118.141 220.607 117.901 220.3C117.675 219.993 117.375 219.753 117.001 219.58C116.641 219.407 116.201 219.32 115.681 219.32C115.175 219.32 114.735 219.407 114.361 219.58C114.001 219.753 113.701 219.993 113.461 220.3C113.235 220.607 113.061 220.973 112.941 221.4C112.835 221.813 112.781 222.26 112.781 222.74C112.781 223.22 112.835 223.667 112.941 224.08C113.061 224.493 113.235 224.853 113.461 225.16C113.701 225.467 114.001 225.713 114.361 225.9C114.735 226.073 115.175 226.16 115.681 226.16Z" fill="#202020"/>
<path d="M33.152 135.552H38.272V143.552H33.152V152H24.064V143.552H1.92V137.088L22.144 106.688H33.152V135.552ZM12.48 135.552H24.064V117.376L12.48 135.552ZM60.547 106.112C63.1497 106.112 65.539 106.56 67.715 107.456C69.9337 108.352 71.811 109.76 73.347 111.68C74.9257 113.557 76.1417 115.947 76.995 118.848C77.891 121.749 78.339 125.205 78.339 129.216C78.339 133.269 77.9123 136.747 77.059 139.648C76.2057 142.549 75.011 144.939 73.475 146.816C71.939 148.693 70.0617 150.08 67.843 150.976C65.667 151.872 63.235 152.32 60.547 152.32C57.859 152.32 55.4057 151.872 53.187 150.976C51.011 150.08 49.1337 148.693 47.555 146.816C46.019 144.939 44.8243 142.549 43.971 139.648C43.1603 136.747 42.755 133.269 42.755 129.216C42.755 125.205 43.1817 121.749 44.035 118.848C44.8883 115.947 46.1043 113.557 47.683 111.68C49.2617 109.76 51.139 108.352 53.315 107.456C55.491 106.56 57.9017 106.112 60.547 106.112ZM60.547 144.128C63.2777 144.128 65.411 142.976 66.947 140.672C68.483 138.368 69.251 134.549 69.251 129.216C69.251 123.925 68.483 120.128 66.947 117.824C65.411 115.477 63.2777 114.304 60.547 114.304C57.7737 114.304 55.619 115.477 54.083 117.824C52.5897 120.128 51.843 123.925 51.843 129.216C51.843 134.549 52.5897 138.368 54.083 140.672C55.619 142.976 57.7737 144.128 60.547 144.128ZM117.733 139.264C117.648 141.611 117.114 143.637 116.133 145.344C115.194 147.008 113.936 148.373 112.357 149.44C110.821 150.507 109.05 151.296 107.045 151.808C105.082 152.277 103.056 152.512 100.965 152.512C98.8317 152.512 96.7623 152.277 94.757 151.808C92.7943 151.296 91.0237 150.507 89.445 149.44C87.909 148.373 86.6503 147.008 85.669 145.344C84.6877 143.68 84.1543 141.653 84.069 139.264C83.9837 136.619 84.4957 134.272 85.605 132.224C86.757 130.176 88.6557 128.661 91.301 127.68C89.4663 126.741 88.0797 125.419 87.141 123.712C86.2023 122.005 85.733 120.235 85.733 118.4C85.733 116.181 86.1383 114.304 86.949 112.768C87.8023 111.189 88.933 109.909 90.341 108.928C91.749 107.904 93.3703 107.179 95.205 106.752C97.0823 106.325 99.0237 106.112 101.029 106.112C103.034 106.112 104.933 106.347 106.725 106.816C108.56 107.285 110.16 108.011 111.525 108.992C112.933 109.973 114.042 111.232 114.853 112.768C115.664 114.304 116.069 116.181 116.069 118.4C116.069 120.235 115.578 122.005 114.597 123.712C113.658 125.419 112.293 126.741 110.501 127.68C113.146 128.661 115.024 130.176 116.133 132.224C117.285 134.272 117.818 136.619 117.733 139.264ZM100.901 114.048C100.048 114.048 99.237 114.155 98.469 114.368C97.7437 114.581 97.0823 114.923 96.485 115.392C95.9303 115.819 95.4823 116.395 95.141 117.12C94.8423 117.803 94.693 118.613 94.693 119.552C94.7357 121.472 95.333 122.901 96.485 123.84C97.637 124.736 99.109 125.184 100.901 125.184C102.693 125.184 104.144 124.736 105.253 123.84C106.405 122.901 107.002 121.472 107.045 119.552C107.045 118.613 106.874 117.803 106.533 117.12C106.234 116.395 105.808 115.819 105.253 115.392C104.698 114.923 104.037 114.581 103.269 114.368C102.501 114.155 101.712 114.048 100.901 114.048ZM108.517 138.304C108.517 137.152 108.304 136.192 107.877 135.424C107.45 134.656 106.874 134.037 106.149 133.568C105.424 133.056 104.592 132.693 103.653 132.48C102.757 132.224 101.818 132.096 100.837 132.096C99.8983 132.096 98.9597 132.224 98.021 132.48C97.125 132.693 96.3143 133.056 95.589 133.568C94.9063 134.037 94.3303 134.677 93.861 135.488C93.4343 136.256 93.221 137.195 93.221 138.304C93.221 139.456 93.4343 140.437 93.861 141.248C94.3303 142.016 94.9277 142.656 95.653 143.168C96.3783 143.637 97.189 143.979 98.085 144.192C99.0237 144.405 99.9623 144.512 100.901 144.512C101.84 144.512 102.757 144.405 103.653 144.192C104.592 143.979 105.402 143.637 106.085 143.168C106.81 142.656 107.386 142.016 107.813 141.248C108.282 140.437 108.517 139.456 108.517 138.304Z" fill="#202020"/>
</svg>
