<svg width="50" height="50" viewBox="0 0 50 50" fill="none" xmlns="http://www.w3.org/2000/svg">
<rect opacity="0.15" width="50" height="50" fill="white"/>
<path d="M34 29.9201V32.9201C34.0011 33.1986 33.9441 33.4743 33.8325 33.7294C33.7209 33.9846 33.5573 34.2137 33.3521 34.402C33.1469 34.5902 32.9046 34.7336 32.6407 34.8228C32.3769 34.912 32.0974 34.9452 31.82 34.9201C28.7428 34.5857 25.787 33.5342 23.19 31.8501C20.7738 30.3148 18.7253 28.2663 17.19 25.8501C15.5 23.2413 14.4482 20.2711 14.12 17.1801C14.095 16.9036 14.1279 16.6249 14.2165 16.3617C14.3051 16.0986 14.4476 15.8568 14.6348 15.6517C14.822 15.4466 15.0498 15.2828 15.3038 15.1706C15.5578 15.0584 15.8323 15.0004 16.11 15.0001H19.11C19.5953 14.9953 20.0658 15.1672 20.4338 15.4836C20.8017 15.8001 21.0421 16.2395 21.11 16.7201C21.2366 17.6802 21.4714 18.6228 21.81 19.5301C21.9445 19.888 21.9737 20.277 21.8939 20.651C21.8141 21.0249 21.6289 21.3682 21.36 21.6401L20.09 22.9101C21.5135 25.4136 23.5864 27.4865 26.09 28.9101L27.36 27.6401C27.6319 27.3712 27.9751 27.1859 28.3491 27.1062C28.7231 27.0264 29.1121 27.0556 29.47 27.1901C30.3773 27.5286 31.3199 27.7635 32.28 27.8901C32.7658 27.9586 33.2094 28.2033 33.5265 28.5776C33.8437 28.9519 34.0122 29.4297 34 29.9201Z" fill="white"/>
<path d="M26.05 15C28.0882 15.2148 29.9922 16.1188 31.4469 17.5626C32.9015 19.0064 33.8199 20.9034 34.05 22.94" stroke="white" stroke-width="2" stroke-linecap="round" stroke-linejoin="round"/>
<path d="M26.05 19C27.0335 19.1939 27.936 19.679 28.6404 20.3923C29.3447 21.1056 29.8184 22.0141 30 23" stroke="white" stroke-width="2" stroke-linecap="round" stroke-linejoin="round"/>
</svg>
