<svg width="163" height="163" viewBox="0 0 163 163" fill="none" xmlns="http://www.w3.org/2000/svg">
<rect x="81.7401" y="2" width="76" height="76" rx="10" transform="rotate(45 81.7401 2)" fill="#E3E4F8"/>
<g filter="url(#filter0_d_398_675)">
<rect x="62.2889" y="5.64355" width="76" height="76" rx="10" transform="rotate(23.7807 62.2889 5.64355)" fill="white"/>
</g>
<path d="M102 65.8402V71.8402C102.002 72.3972 101.888 72.9485 101.665 73.4589C101.442 73.9692 101.115 74.4274 100.704 74.8039C100.294 75.1805 99.8091 75.4672 99.2815 75.6456C98.7538 75.8241 98.1947 75.8903 97.64 75.8402C91.4857 75.1715 85.574 73.0685 80.38 69.7002C75.5476 66.6295 71.4507 62.5325 68.38 57.7002C64.9999 52.4826 62.8965 46.5422 62.24 40.3602C62.19 39.8071 62.2557 39.2497 62.433 38.7234C62.6102 38.1972 62.8951 37.7136 63.2695 37.3034C63.6439 36.8933 64.0996 36.5656 64.6076 36.3412C65.1155 36.1169 65.6647 36.0007 66.22 36.0002H72.22C73.1906 35.9906 74.1316 36.3344 74.8675 36.9673C75.6035 37.6002 76.0841 38.4791 76.22 39.4402C76.4732 41.3603 76.9429 43.2456 77.62 45.0602C77.8891 45.776 77.9473 46.554 77.7878 47.302C77.6283 48.0499 77.2577 48.7364 76.72 49.2802L74.18 51.8202C77.0271 56.8273 81.1729 60.9731 86.18 63.8202L88.72 61.2802C89.2638 60.7425 89.9503 60.3719 90.6982 60.2124C91.4462 60.0529 92.2241 60.1111 92.94 60.3802C94.7545 61.0573 96.6399 61.527 98.56 61.7802C99.5315 61.9173 100.419 62.4066 101.053 63.1552C101.687 63.9038 102.024 64.8593 102 65.8402Z" stroke="#0862EE" stroke-width="3" stroke-linecap="round" stroke-linejoin="round"/>
<path d="M86.1 36C90.1765 36.4295 93.9843 38.2376 96.8937 41.1252C99.8031 44.0127 101.64 47.8068 102.1 51.88" stroke="#0862EE" stroke-width="3" stroke-linecap="round" stroke-linejoin="round"/>
<path d="M86.1 44C88.067 44.3879 89.872 45.3581 91.2808 46.7846C92.6895 48.2112 93.6369 50.0283 94 52" stroke="#0862EE" stroke-width="3" stroke-linecap="round" stroke-linejoin="round"/>
<defs>
<filter id="filter0_d_398_675" x="0.823669" y="0.824219" width="161.832" height="161.832" filterUnits="userSpaceOnUse" color-interpolation-filters="sRGB">
<feFlood flood-opacity="0" result="BackgroundImageFix"/>
<feColorMatrix in="SourceAlpha" type="matrix" values="0 0 0 0 0 0 0 0 0 0 0 0 0 0 0 0 0 0 127 0" result="hardAlpha"/>
<feMorphology radius="10" operator="erode" in="SourceAlpha" result="effect1_dropShadow_398_675"/>
<feOffset dy="26"/>
<feGaussianBlur stdDeviation="22"/>
<feComposite in2="hardAlpha" operator="out"/>
<feColorMatrix type="matrix" values="0 0 0 0 0.222247 0 0 0 0 0.31766 0 0 0 0 0.858333 0 0 0 0.27 0"/>
<feBlend mode="normal" in2="BackgroundImageFix" result="effect1_dropShadow_398_675"/>
<feBlend mode="normal" in="SourceGraphic" in2="effect1_dropShadow_398_675" result="shape"/>
</filter>
</defs>
</svg>
