<svg width="440" height="410" viewBox="0 0 440 410" fill="none" xmlns="http://www.w3.org/2000/svg">
<rect x="191" y="180" width="38" height="38" fill="#0862EE"/>
<g filter="url(#filter0_d_4615_1341)">
<rect x="335.853" y="114" width="120" height="120" rx="10" transform="rotate(45 335.853 114)" fill="#325488"/>
</g>
<rect x="62.8918" y="116.891" width="120" height="120" rx="10" transform="rotate(30 62.8918 116.891)" fill="#CAD2FF"/>
<rect x="84.8528" y="115.414" width="118" height="118" rx="9" transform="rotate(45 84.8528 115.414)" fill="white" stroke="#0862EE" stroke-width="2"/>
<path d="M98.677 173.25C98.6822 175.23 98.2196 177.183 97.327 178.95C96.2687 181.068 94.6416 182.849 92.6282 184.094C90.6147 185.339 88.2944 185.999 85.927 186C83.9472 186.005 81.9942 185.543 80.227 184.65L71.677 187.5L74.527 178.95C73.6344 177.183 73.1718 175.23 73.177 173.25C73.1779 170.883 73.8379 168.562 75.0831 166.549C76.3282 164.535 78.1094 162.908 80.227 161.85C81.9942 160.957 83.9472 160.495 85.927 160.5H86.677C89.8035 160.672 92.7566 161.992 94.9707 164.206C97.1849 166.42 98.5045 169.373 98.677 172.5V173.25Z" stroke="#CFE5FF" stroke-width="3" stroke-linecap="round" stroke-linejoin="round"/>
<path d="M38.9083 218V205.981H48.5473V218H46.7453V207.613H40.7103V218H38.9083ZM55.0311 218.102C54.1018 218.102 53.3141 217.915 52.6681 217.541C52.0221 217.156 51.5291 216.617 51.1891 215.926C50.8604 215.235 50.6961 214.436 50.6961 213.529C50.6961 212.611 50.8604 211.812 51.1891 211.132C51.5291 210.441 52.0221 209.902 52.6681 209.517C53.3141 209.12 54.1074 208.922 55.0481 208.922C55.9774 208.922 56.7651 209.12 57.4111 209.517C58.0571 209.902 58.5444 210.441 58.8731 211.132C59.2018 211.823 59.3661 212.628 59.3661 213.546C59.3661 214.441 59.1961 215.235 58.8561 215.926C58.5274 216.617 58.0401 217.156 57.3941 217.541C56.7594 217.915 55.9718 218.102 55.0311 218.102ZM55.0311 216.538C55.6431 216.538 56.1361 216.402 56.5101 216.13C56.8954 215.858 57.1788 215.495 57.3601 215.042C57.5414 214.589 57.6321 214.09 57.6321 213.546C57.6321 213.002 57.5414 212.503 57.3601 212.05C57.1788 211.585 56.8954 211.217 56.5101 210.945C56.1361 210.662 55.6431 210.52 55.0311 210.52C54.4304 210.52 53.9374 210.662 53.5521 210.945C53.1668 211.217 52.8834 211.58 52.7021 212.033C52.5321 212.486 52.4471 212.991 52.4471 213.546C52.4471 214.09 52.5321 214.589 52.7021 215.042C52.8834 215.495 53.1668 215.858 53.5521 216.13C53.9374 216.402 54.4304 216.538 55.0311 216.538ZM60.2158 220.669V216.453C60.5332 216.453 60.7882 216.368 60.9808 216.198C61.1735 216.028 61.3265 215.807 61.4398 215.535C61.5532 215.263 61.6382 214.963 61.6948 214.634C61.7628 214.294 61.8195 213.965 61.8648 213.648C61.9215 213.138 61.9555 212.622 61.9668 212.101C61.9895 211.568 62.0008 211.126 62.0008 210.775C62.0122 210.492 62.0178 210.208 62.0178 209.925C62.0178 209.63 62.0178 209.336 62.0178 209.041H68.6648V216.453H69.8208V220.669H68.1038V218H61.9328V220.669H60.2158ZM62.8338 216.453H66.8968V210.605H63.6328C63.6328 211.047 63.6272 211.534 63.6158 212.067C63.6045 212.6 63.5818 213.104 63.5478 213.58C63.5252 213.852 63.4968 214.158 63.4628 214.498C63.4288 214.838 63.3665 215.178 63.2758 215.518C63.1852 215.858 63.0378 216.17 62.8338 216.453ZM71.3057 220.669V216.453C71.623 216.453 71.878 216.368 72.0707 216.198C72.2633 216.028 72.4163 215.807 72.5297 215.535C72.643 215.263 72.728 214.963 72.7847 214.634C72.8527 214.294 72.9093 213.965 72.9547 213.648C73.0113 213.138 73.0453 212.622 73.0567 212.101C73.0793 211.568 73.0907 211.126 73.0907 210.775C73.102 210.492 73.1077 210.208 73.1077 209.925C73.1077 209.63 73.1077 209.336 73.1077 209.041H79.7547V216.453H80.9107V220.669H79.1937V218H73.0227V220.669H71.3057ZM73.9237 216.453H77.9867V210.605H74.7227C74.7227 211.047 74.717 211.534 74.7057 212.067C74.6943 212.6 74.6717 213.104 74.6377 213.58C74.615 213.852 74.5867 214.158 74.5527 214.498C74.5187 214.838 74.4563 215.178 74.3657 215.518C74.275 215.858 74.1277 216.17 73.9237 216.453ZM86.2408 218.102C85.3002 218.102 84.5125 217.909 83.8778 217.524C83.2432 217.139 82.7615 216.606 82.4328 215.926C82.1155 215.235 81.9568 214.441 81.9568 213.546C81.9568 212.639 82.1212 211.84 82.4498 211.149C82.7898 210.458 83.2772 209.914 83.9118 209.517C84.5578 209.12 85.3342 208.922 86.2408 208.922C86.9095 208.922 87.4932 209.047 87.9918 209.296C88.5018 209.534 88.9268 209.868 89.2668 210.299C89.6182 210.718 89.8732 211.194 90.0318 211.727C90.1905 212.26 90.2642 212.821 90.2528 213.41C90.2415 213.535 90.2302 213.654 90.2188 213.767C90.2188 213.88 90.2132 213.999 90.2018 214.124H83.7248C83.7588 214.577 83.8722 214.991 84.0648 215.365C84.2688 215.739 84.5522 216.039 84.9148 216.266C85.2775 216.481 85.7252 216.589 86.2578 216.589C86.5525 216.589 86.8358 216.555 87.1078 216.487C87.3912 216.408 87.6405 216.289 87.8558 216.13C88.0825 215.96 88.2412 215.745 88.3318 215.484H90.0998C89.9525 216.085 89.6862 216.583 89.3008 216.98C88.9268 217.365 88.4678 217.649 87.9238 217.83C87.3912 218.011 86.8302 218.102 86.2408 218.102ZM83.7588 212.73H88.5188C88.5075 212.288 88.4055 211.897 88.2128 211.557C88.0202 211.206 87.7538 210.934 87.4138 210.741C87.0738 210.537 86.6658 210.435 86.1898 210.435C85.6685 210.435 85.2322 210.543 84.8808 210.758C84.5408 210.973 84.2745 211.257 84.0818 211.608C83.9005 211.948 83.7928 212.322 83.7588 212.73ZM92.0585 221.264V209.041H93.7245L93.8095 210.333C94.1269 209.857 94.5462 209.506 95.0675 209.279C95.5889 209.041 96.1442 208.922 96.7335 208.922C97.6175 208.922 98.3485 209.126 98.9265 209.534C99.5045 209.942 99.9352 210.492 100.219 211.183C100.502 211.874 100.644 212.656 100.644 213.529C100.644 214.402 100.496 215.184 100.202 215.875C99.9182 216.566 99.4762 217.11 98.8755 217.507C98.2862 217.904 97.5325 218.102 96.6145 218.102C96.1725 218.102 95.7759 218.057 95.4245 217.966C95.0732 217.875 94.7672 217.745 94.5065 217.575C94.2459 217.394 94.0135 217.201 93.8095 216.997V221.264H92.0585ZM96.4105 216.538C97.0225 216.538 97.5099 216.402 97.8725 216.13C98.2352 215.847 98.4959 215.478 98.6545 215.025C98.8132 214.572 98.8925 214.079 98.8925 213.546C98.8925 212.991 98.8075 212.486 98.6375 212.033C98.4789 211.568 98.2125 211.2 97.8385 210.928C97.4759 210.645 96.9885 210.503 96.3765 210.503C95.8212 210.503 95.3509 210.645 94.9655 210.928C94.5802 211.2 94.2855 211.568 94.0815 212.033C93.8889 212.498 93.7925 213.002 93.7925 213.546C93.7925 214.101 93.8832 214.611 94.0645 215.076C94.2572 215.529 94.5462 215.886 94.9315 216.147C95.3282 216.408 95.8212 216.538 96.4105 216.538ZM101.335 218L104.106 213.308L101.556 209.041H103.409L105.585 212.781H106.894V209.041H108.662V212.781H109.971L112.13 209.041H114L111.45 213.308L114.221 218H112.215L110.107 214.294H108.662V218H106.894V214.294H105.466L103.341 218H101.335ZM115.483 218V209.041H117.234V212.764H118.73L121.229 209.041H123.235L120.294 213.291L123.405 218H121.365L118.9 214.311H117.234V218H115.483ZM127.254 218.102C126.857 218.102 126.472 218.051 126.098 217.949C125.724 217.836 125.389 217.671 125.095 217.456C124.8 217.229 124.562 216.952 124.381 216.623C124.211 216.283 124.126 215.886 124.126 215.433C124.126 214.889 124.228 214.441 124.432 214.09C124.647 213.727 124.93 213.45 125.282 213.257C125.633 213.053 126.035 212.911 126.489 212.832C126.953 212.741 127.435 212.696 127.934 212.696H130.127C130.127 212.254 130.059 211.869 129.923 211.54C129.787 211.2 129.571 210.939 129.277 210.758C128.993 210.565 128.614 210.469 128.138 210.469C127.854 210.469 127.582 210.503 127.322 210.571C127.072 210.628 126.857 210.724 126.676 210.86C126.494 210.996 126.37 211.177 126.302 211.404H124.466C124.534 210.973 124.687 210.605 124.925 210.299C125.163 209.982 125.457 209.721 125.809 209.517C126.16 209.313 126.534 209.166 126.931 209.075C127.339 208.973 127.752 208.922 128.172 208.922C129.033 208.922 129.73 209.092 130.263 209.432C130.807 209.772 131.203 210.259 131.453 210.894C131.702 211.529 131.827 212.282 131.827 213.155V218H130.314L130.246 216.895C129.985 217.224 129.685 217.479 129.345 217.66C129.016 217.83 128.67 217.943 128.308 218C127.945 218.068 127.594 218.102 127.254 218.102ZM127.56 216.623C128.081 216.623 128.534 216.538 128.92 216.368C129.305 216.187 129.6 215.932 129.804 215.603C130.019 215.263 130.127 214.861 130.127 214.396V214.039H128.529C128.2 214.039 127.877 214.05 127.56 214.073C127.242 214.084 126.953 214.13 126.693 214.209C126.443 214.277 126.245 214.396 126.098 214.566C125.95 214.736 125.877 214.98 125.877 215.297C125.877 215.603 125.956 215.852 126.115 216.045C126.273 216.238 126.483 216.385 126.744 216.487C127.004 216.578 127.276 216.623 127.56 216.623Z" fill="#0862EE"/>
<rect x="187.892" y="242.891" width="120" height="120" rx="10" transform="rotate(30 187.892 242.891)" fill="#CAD2FF"/>
<rect x="209.853" y="241.414" width="118" height="118" rx="9" transform="rotate(45 209.853 241.414)" fill="white" stroke="#0862EE" stroke-width="2"/>
<path d="M219.177 306L225.177 300L219.177 294" stroke="#CFE5FF" stroke-width="3" stroke-linecap="round" stroke-linejoin="round"/>
<path d="M201.177 294L195.177 300L201.177 306" stroke="#CFE5FF" stroke-width="3" stroke-linecap="round" stroke-linejoin="round"/>
<path d="M213.927 288L206.427 312" stroke="#CFE5FF" stroke-width="3" stroke-linecap="round" stroke-linejoin="round"/>
<path d="M165.667 347.23V342.351C166.098 342.351 166.421 342.26 166.636 342.079C166.852 341.898 167.01 341.665 167.112 341.382C167.214 341.11 167.294 340.798 167.35 340.447C167.418 340.096 167.475 339.727 167.52 339.342C167.566 338.957 167.6 338.571 167.622 338.186C167.69 337.132 167.736 336.089 167.758 335.058C167.792 334.027 167.815 333.001 167.826 331.981H175.782V342.351H177.227V347.23H175.425V344H167.469V347.23H165.667ZM168.727 342.351H173.98V333.63H169.543L169.407 337.999C169.396 338.26 169.379 338.566 169.356 338.917C169.345 339.268 169.317 339.642 169.271 340.039C169.226 340.424 169.158 340.821 169.067 341.229C168.988 341.626 168.875 342 168.727 342.351ZM182.613 344.102C181.683 344.102 180.896 343.915 180.25 343.541C179.604 343.156 179.111 342.617 178.771 341.926C178.442 341.235 178.278 340.436 178.278 339.529C178.278 338.611 178.442 337.812 178.771 337.132C179.111 336.441 179.604 335.902 180.25 335.517C180.896 335.12 181.689 334.922 182.63 334.922C183.559 334.922 184.347 335.12 184.993 335.517C185.639 335.902 186.126 336.441 186.455 337.132C186.783 337.823 186.948 338.628 186.948 339.546C186.948 340.441 186.778 341.235 186.438 341.926C186.109 342.617 185.622 343.156 184.976 343.541C184.341 343.915 183.553 344.102 182.613 344.102ZM182.613 342.538C183.225 342.538 183.718 342.402 184.092 342.13C184.477 341.858 184.76 341.495 184.942 341.042C185.123 340.589 185.214 340.09 185.214 339.546C185.214 339.002 185.123 338.503 184.942 338.05C184.76 337.585 184.477 337.217 184.092 336.945C183.718 336.662 183.225 336.52 182.613 336.52C182.012 336.52 181.519 336.662 181.134 336.945C180.748 337.217 180.465 337.58 180.284 338.033C180.114 338.486 180.029 338.991 180.029 339.546C180.029 340.09 180.114 340.589 180.284 341.042C180.465 341.495 180.748 341.858 181.134 342.13C181.519 342.402 182.012 342.538 182.613 342.538ZM188.745 347.264V335.041H190.411L190.496 336.333C190.813 335.857 191.232 335.506 191.754 335.279C192.275 335.041 192.83 334.922 193.42 334.922C194.304 334.922 195.035 335.126 195.613 335.534C196.191 335.942 196.621 336.492 196.905 337.183C197.188 337.874 197.33 338.656 197.33 339.529C197.33 340.402 197.182 341.184 196.888 341.875C196.604 342.566 196.162 343.11 195.562 343.507C194.972 343.904 194.219 344.102 193.301 344.102C192.859 344.102 192.462 344.057 192.111 343.966C191.759 343.875 191.453 343.745 191.193 343.575C190.932 343.394 190.7 343.201 190.496 342.997V347.264H188.745ZM193.097 342.538C193.709 342.538 194.196 342.402 194.559 342.13C194.921 341.847 195.182 341.478 195.341 341.025C195.499 340.572 195.579 340.079 195.579 339.546C195.579 338.991 195.494 338.486 195.324 338.033C195.165 337.568 194.899 337.2 194.525 336.928C194.162 336.645 193.675 336.503 193.063 336.503C192.507 336.503 192.037 336.645 191.652 336.928C191.266 337.2 190.972 337.568 190.768 338.033C190.575 338.498 190.479 339.002 190.479 339.546C190.479 340.101 190.569 340.611 190.751 341.076C190.943 341.529 191.232 341.886 191.618 342.147C192.014 342.408 192.507 342.538 193.097 342.538ZM201.893 344.102C201.496 344.102 201.111 344.051 200.737 343.949C200.363 343.836 200.028 343.671 199.734 343.456C199.439 343.229 199.201 342.952 199.02 342.623C198.85 342.283 198.765 341.886 198.765 341.433C198.765 340.889 198.867 340.441 199.071 340.09C199.286 339.727 199.569 339.45 199.921 339.257C200.272 339.053 200.674 338.911 201.128 338.832C201.592 338.741 202.074 338.696 202.573 338.696H204.766C204.766 338.254 204.698 337.869 204.562 337.54C204.426 337.2 204.21 336.939 203.916 336.758C203.632 336.565 203.253 336.469 202.777 336.469C202.493 336.469 202.221 336.503 201.961 336.571C201.711 336.628 201.496 336.724 201.315 336.86C201.133 336.996 201.009 337.177 200.941 337.404H199.105C199.173 336.973 199.326 336.605 199.564 336.299C199.802 335.982 200.096 335.721 200.448 335.517C200.799 335.313 201.173 335.166 201.57 335.075C201.978 334.973 202.391 334.922 202.811 334.922C203.672 334.922 204.369 335.092 204.902 335.432C205.446 335.772 205.842 336.259 206.092 336.894C206.341 337.529 206.466 338.282 206.466 339.155V344H204.953L204.885 342.895C204.624 343.224 204.324 343.479 203.984 343.66C203.655 343.83 203.309 343.943 202.947 344C202.584 344.068 202.233 344.102 201.893 344.102ZM202.199 342.623C202.72 342.623 203.173 342.538 203.559 342.368C203.944 342.187 204.239 341.932 204.443 341.603C204.658 341.263 204.766 340.861 204.766 340.396V340.039H203.168C202.839 340.039 202.516 340.05 202.199 340.073C201.881 340.084 201.592 340.13 201.332 340.209C201.082 340.277 200.884 340.396 200.737 340.566C200.589 340.736 200.516 340.98 200.516 341.297C200.516 341.603 200.595 341.852 200.754 342.045C200.912 342.238 201.122 342.385 201.383 342.487C201.643 342.578 201.915 342.623 202.199 342.623ZM212.528 344.102C211.939 344.102 211.412 344.017 210.947 343.847C210.482 343.677 210.086 343.439 209.757 343.133C209.428 342.816 209.156 342.447 208.941 342.028C208.726 341.597 208.561 341.133 208.448 340.634C208.346 340.124 208.295 339.586 208.295 339.019C208.295 338.158 208.323 337.359 208.38 336.622C208.437 335.885 208.573 335.228 208.788 334.65C209.003 334.072 209.343 333.59 209.808 333.205C210.273 332.82 210.907 332.536 211.712 332.355C212.165 332.253 212.619 332.168 213.072 332.1C213.537 332.032 214.013 331.97 214.5 331.913C214.772 331.868 215.01 331.834 215.214 331.811C215.418 331.777 215.605 331.749 215.775 331.726C215.956 331.692 216.121 331.664 216.268 331.641V333.324C216.155 333.369 216.024 333.403 215.877 333.426C215.741 333.449 215.599 333.471 215.452 333.494C215.305 333.517 215.157 333.534 215.01 333.545C214.863 333.556 214.715 333.573 214.568 333.596C214.421 333.607 214.279 333.624 214.143 333.647C213.712 333.681 213.265 333.721 212.8 333.766C212.347 333.811 211.916 333.908 211.508 334.055C211.111 334.191 210.783 334.452 210.522 334.837C210.397 335.018 210.29 335.234 210.199 335.483C210.108 335.732 210.04 335.993 209.995 336.265C209.961 336.537 209.938 336.798 209.927 337.047C210.165 336.707 210.448 336.435 210.777 336.231C211.117 336.027 211.474 335.88 211.848 335.789C212.222 335.698 212.579 335.653 212.919 335.653C213.735 335.653 214.426 335.829 214.993 336.18C215.56 336.52 215.99 337.002 216.285 337.625C216.58 338.237 216.727 338.945 216.727 339.75C216.727 340.589 216.557 341.337 216.217 341.994C215.888 342.651 215.407 343.167 214.772 343.541C214.149 343.915 213.401 344.102 212.528 344.102ZM212.545 342.555C213.078 342.555 213.52 342.43 213.871 342.181C214.234 341.932 214.506 341.597 214.687 341.178C214.88 340.759 214.976 340.305 214.976 339.818C214.976 339.342 214.88 338.911 214.687 338.526C214.506 338.129 214.239 337.818 213.888 337.591C213.537 337.364 213.1 337.251 212.579 337.251C212.069 337.251 211.627 337.37 211.253 337.608C210.89 337.846 210.613 338.163 210.42 338.56C210.227 338.957 210.131 339.387 210.131 339.852C210.131 340.317 210.222 340.759 210.403 341.178C210.584 341.597 210.851 341.932 211.202 342.181C211.553 342.43 212.001 342.555 212.545 342.555ZM222.523 344.102C221.593 344.102 220.806 343.915 220.16 343.541C219.514 343.156 219.021 342.617 218.681 341.926C218.352 341.235 218.188 340.436 218.188 339.529C218.188 338.611 218.352 337.812 218.681 337.132C219.021 336.441 219.514 335.902 220.16 335.517C220.806 335.12 221.599 334.922 222.54 334.922C223.469 334.922 224.257 335.12 224.903 335.517C225.549 335.902 226.036 336.441 226.365 337.132C226.693 337.823 226.858 338.628 226.858 339.546C226.858 340.441 226.688 341.235 226.348 341.926C226.019 342.617 225.532 343.156 224.886 343.541C224.251 343.915 223.463 344.102 222.523 344.102ZM222.523 342.538C223.135 342.538 223.628 342.402 224.002 342.13C224.387 341.858 224.67 341.495 224.852 341.042C225.033 340.589 225.124 340.09 225.124 339.546C225.124 339.002 225.033 338.503 224.852 338.05C224.67 337.585 224.387 337.217 224.002 336.945C223.628 336.662 223.135 336.52 222.523 336.52C221.922 336.52 221.429 336.662 221.044 336.945C220.658 337.217 220.375 337.58 220.194 338.033C220.024 338.486 219.939 338.991 219.939 339.546C219.939 340.09 220.024 340.589 220.194 341.042C220.375 341.495 220.658 341.858 221.044 342.13C221.429 342.402 221.922 342.538 222.523 342.538ZM230.763 344V336.605H227.737V335.041H235.54V336.605H232.514V344H230.763ZM236.756 344V335.041H238.507V338.764H240.003L242.502 335.041H244.508L241.567 339.291L244.678 344H242.638L240.173 340.311H238.507V344H236.756ZM245.871 344V335.041H247.622V341.382C247.701 341.246 247.803 341.099 247.928 340.94C248.052 340.77 248.149 340.634 248.217 340.532L252.314 335.041H253.946V344H252.195V337.693C252.104 337.84 252.008 337.988 251.906 338.135C251.804 338.271 251.707 338.396 251.617 338.509L247.52 344H245.871Z" fill="#0862EE"/>
<rect x="187.892" y="2.89111" width="120" height="120" rx="10" transform="rotate(30 187.892 2.89111)" fill="#CAD2FF"/>
<rect x="209.853" y="1.41421" width="118" height="118" rx="9" transform="rotate(45 209.853 1.41421)" fill="white" stroke="#0862EE" stroke-width="2"/>
<path d="M223.992 65.835C223.038 68.0917 221.545 70.0803 219.645 71.6269C217.744 73.1736 215.494 74.2311 213.091 74.7072C210.687 75.1832 208.204 75.0632 205.857 74.3577C203.511 73.6522 201.373 72.3826 199.631 70.66C197.888 68.9374 196.594 66.8141 195.862 64.4759C195.13 62.1377 194.981 59.6557 195.43 57.2469C195.878 54.8382 196.91 52.5759 198.435 50.658C199.96 48.7401 201.931 47.225 204.177 46.245" stroke="#CFE5FF" stroke-width="3" stroke-linecap="round" stroke-linejoin="round"/>
<path d="M225.177 60C225.177 58.0302 224.789 56.0796 224.035 54.2597C223.281 52.4399 222.176 50.7863 220.784 49.3934C219.391 48.0005 217.737 46.8956 215.917 46.1418C214.097 45.388 212.147 45 210.177 45V60H225.177Z" stroke="#CFE5FF" stroke-width="3" stroke-linecap="round" stroke-linejoin="round"/>
<path d="M167.413 104.136C166.518 104.136 165.725 103.994 165.033 103.711C164.342 103.428 163.775 103.025 163.333 102.504C162.891 101.971 162.585 101.342 162.415 100.617H164.302C164.416 100.991 164.614 101.32 164.897 101.603C165.192 101.886 165.555 102.107 165.985 102.266C166.416 102.413 166.903 102.487 167.447 102.487C168.241 102.487 168.904 102.328 169.436 102.011C169.969 101.682 170.377 101.24 170.66 100.685C170.944 100.13 171.097 99.5007 171.119 98.798H165.849V97.183H171.119C171.085 96.5143 170.927 95.9023 170.643 95.347C170.371 94.7917 169.975 94.344 169.453 94.004C168.932 93.6527 168.275 93.477 167.481 93.477C166.926 93.477 166.433 93.5563 166.002 93.715C165.583 93.8737 165.232 94.0947 164.948 94.378C164.665 94.65 164.467 94.9787 164.353 95.364H162.568C162.738 94.548 163.067 93.8793 163.554 93.358C164.042 92.8367 164.637 92.457 165.339 92.219C166.042 91.9697 166.784 91.845 167.566 91.845C168.507 91.845 169.317 92.0037 169.997 92.321C170.677 92.627 171.238 93.0633 171.68 93.63C172.134 94.1967 172.468 94.8597 172.683 95.619C172.899 96.367 173.006 97.1773 173.006 98.05C173.006 99.2513 172.797 100.311 172.377 101.229C171.969 102.136 171.346 102.85 170.507 103.371C169.68 103.881 168.649 104.136 167.413 104.136ZM174.824 104V95.041H176.575V98.764H178.071L180.57 95.041H182.576L179.635 99.291L182.746 104H180.706L178.241 100.311H176.575V104H174.824ZM187.665 104.102C186.725 104.102 185.937 103.909 185.302 103.524C184.679 103.139 184.209 102.606 183.891 101.926C183.585 101.235 183.432 100.441 183.432 99.546C183.432 98.662 183.591 97.8743 183.908 97.183C184.237 96.4803 184.724 95.9307 185.37 95.534C186.028 95.126 186.838 94.922 187.801 94.922C188.459 94.922 189.042 95.0353 189.552 95.262C190.062 95.4773 190.476 95.8003 190.793 96.231C191.122 96.6503 191.337 97.1773 191.439 97.812H189.688C189.541 97.3473 189.292 97.013 188.94 96.809C188.6 96.605 188.198 96.503 187.733 96.503C187.11 96.503 186.611 96.6503 186.237 96.945C185.863 97.2397 185.591 97.6193 185.421 98.084C185.263 98.5487 185.183 99.036 185.183 99.546C185.183 100.079 185.268 100.572 185.438 101.025C185.62 101.478 185.892 101.847 186.254 102.13C186.628 102.402 187.116 102.538 187.716 102.538C188.17 102.538 188.589 102.442 188.974 102.249C189.36 102.045 189.609 101.705 189.722 101.229H191.524C191.422 101.886 191.184 102.43 190.81 102.861C190.436 103.28 189.972 103.592 189.416 103.796C188.872 104 188.289 104.102 187.665 104.102ZM193.219 104V95.041H200.886V104H199.135V96.605H194.97V104H193.219ZM206.974 104.102C206.034 104.102 205.246 103.909 204.611 103.524C203.977 103.139 203.495 102.606 203.166 101.926C202.849 101.235 202.69 100.441 202.69 99.546C202.69 98.6393 202.855 97.8403 203.183 97.149C203.523 96.4577 204.011 95.9137 204.645 95.517C205.291 95.1203 206.068 94.922 206.974 94.922C207.643 94.922 208.227 95.0467 208.725 95.296C209.235 95.534 209.66 95.8683 210 96.299C210.352 96.7183 210.607 97.1943 210.765 97.727C210.924 98.2597 210.998 98.8207 210.986 99.41C210.975 99.5347 210.964 99.6537 210.952 99.767C210.952 99.8803 210.947 99.9993 210.935 100.124H204.458C204.492 100.577 204.606 100.991 204.798 101.365C205.002 101.739 205.286 102.039 205.648 102.266C206.011 102.481 206.459 102.589 206.991 102.589C207.286 102.589 207.569 102.555 207.841 102.487C208.125 102.408 208.374 102.289 208.589 102.13C208.816 101.96 208.975 101.745 209.065 101.484H210.833C210.686 102.085 210.42 102.583 210.034 102.98C209.66 103.365 209.201 103.649 208.657 103.83C208.125 104.011 207.564 104.102 206.974 104.102ZM204.492 98.73H209.252C209.241 98.288 209.139 97.897 208.946 97.557C208.754 97.2057 208.487 96.9337 208.147 96.741C207.807 96.537 207.399 96.435 206.923 96.435C206.402 96.435 205.966 96.5427 205.614 96.758C205.274 96.9733 205.008 97.2567 204.815 97.608C204.634 97.948 204.526 98.322 204.492 98.73ZM212.792 107.264V95.041H214.458L214.543 96.333C214.86 95.857 215.28 95.5057 215.801 95.279C216.322 95.041 216.878 94.922 217.467 94.922C218.351 94.922 219.082 95.126 219.66 95.534C220.238 95.942 220.669 96.4917 220.952 97.183C221.235 97.8743 221.377 98.6563 221.377 99.529C221.377 100.402 221.23 101.184 220.935 101.875C220.652 102.566 220.21 103.11 219.609 103.507C219.02 103.904 218.266 104.102 217.348 104.102C216.906 104.102 216.509 104.057 216.158 103.966C215.807 103.875 215.501 103.745 215.24 103.575C214.979 103.394 214.747 103.201 214.543 102.997V107.264H212.792ZM217.144 102.538C217.756 102.538 218.243 102.402 218.606 102.13C218.969 101.847 219.229 101.478 219.388 101.025C219.547 100.572 219.626 100.079 219.626 99.546C219.626 98.9907 219.541 98.4863 219.371 98.033C219.212 97.5683 218.946 97.2 218.572 96.928C218.209 96.6447 217.722 96.503 217.11 96.503C216.555 96.503 216.084 96.6447 215.699 96.928C215.314 97.2 215.019 97.5683 214.815 98.033C214.622 98.4977 214.526 99.002 214.526 99.546C214.526 100.101 214.617 100.611 214.798 101.076C214.991 101.529 215.28 101.886 215.665 102.147C216.062 102.408 216.555 102.538 217.144 102.538ZM225.226 104V96.605H222.2V95.041H230.003V96.605H226.977V104H225.226ZM231.22 104V95.041H232.971V101.382C233.05 101.246 233.152 101.099 233.277 100.94C233.401 100.77 233.498 100.634 233.566 100.532L237.663 95.041H239.295V104H237.544V97.693C237.453 97.8403 237.357 97.9877 237.255 98.135C237.153 98.271 237.056 98.3957 236.966 98.509L232.869 104H231.22ZM244.83 104.102C244.376 104.102 243.929 104.062 243.487 103.983C243.045 103.892 242.631 103.745 242.246 103.541C241.872 103.337 241.566 103.065 241.328 102.725C241.09 102.385 240.954 101.954 240.92 101.433H242.637C242.682 101.716 242.829 101.943 243.079 102.113C243.328 102.283 243.611 102.408 243.929 102.487C244.246 102.555 244.541 102.589 244.813 102.589C245.107 102.589 245.408 102.561 245.714 102.504C246.02 102.436 246.275 102.311 246.479 102.13C246.694 101.937 246.802 101.665 246.802 101.314C246.802 100.997 246.722 100.759 246.564 100.6C246.405 100.441 246.195 100.334 245.935 100.277C245.674 100.22 245.385 100.192 245.068 100.192H243.487V98.764H244.762C244.977 98.764 245.187 98.747 245.391 98.713C245.595 98.6677 245.776 98.6053 245.935 98.526C246.105 98.4353 246.241 98.3163 246.343 98.169C246.445 98.0103 246.496 97.812 246.496 97.574C246.496 97.2907 246.411 97.0697 246.241 96.911C246.082 96.741 245.872 96.622 245.612 96.554C245.351 96.486 245.085 96.452 244.813 96.452C244.541 96.452 244.263 96.4803 243.98 96.537C243.696 96.5937 243.453 96.7013 243.249 96.86C243.045 97.0187 242.92 97.2397 242.875 97.523H241.175C241.22 96.8657 241.424 96.35 241.787 95.976C242.161 95.5907 242.62 95.3187 243.164 95.16C243.708 95.0013 244.252 94.922 244.796 94.922C245.204 94.922 245.606 94.9617 246.003 95.041C246.399 95.1203 246.762 95.2563 247.091 95.449C247.431 95.6303 247.697 95.8797 247.89 96.197C248.082 96.5143 248.179 96.9053 248.179 97.37C248.179 97.7553 248.088 98.1067 247.907 98.424C247.737 98.73 247.465 98.9793 247.091 99.172C247.623 99.3533 247.997 99.6367 248.213 100.022C248.428 100.396 248.536 100.838 248.536 101.348C248.536 101.847 248.428 102.272 248.213 102.623C247.997 102.963 247.714 103.246 247.363 103.473C247.011 103.688 246.615 103.847 246.173 103.949C245.731 104.051 245.283 104.102 244.83 104.102ZM253.084 104.102C252.687 104.102 252.302 104.051 251.928 103.949C251.554 103.836 251.219 103.671 250.925 103.456C250.63 103.229 250.392 102.952 250.211 102.623C250.041 102.283 249.956 101.886 249.956 101.433C249.956 100.889 250.058 100.441 250.262 100.09C250.477 99.7273 250.76 99.4497 251.112 99.257C251.463 99.053 251.865 98.9113 252.319 98.832C252.783 98.7413 253.265 98.696 253.764 98.696H255.957C255.957 98.254 255.889 97.8687 255.753 97.54C255.617 97.2 255.401 96.9393 255.107 96.758C254.823 96.5653 254.444 96.469 253.968 96.469C253.684 96.469 253.412 96.503 253.152 96.571C252.902 96.6277 252.687 96.724 252.506 96.86C252.324 96.996 252.2 97.1773 252.132 97.404H250.296C250.364 96.9733 250.517 96.605 250.755 96.299C250.993 95.9817 251.287 95.721 251.639 95.517C251.99 95.313 252.364 95.1657 252.761 95.075C253.169 94.973 253.582 94.922 254.002 94.922C254.863 94.922 255.56 95.092 256.093 95.432C256.637 95.772 257.033 96.2593 257.283 96.894C257.532 97.5287 257.657 98.2823 257.657 99.155V104H256.144L256.076 102.895C255.815 103.224 255.515 103.479 255.175 103.66C254.846 103.83 254.5 103.943 254.138 104C253.775 104.068 253.424 104.102 253.084 104.102ZM253.39 102.623C253.911 102.623 254.364 102.538 254.75 102.368C255.135 102.187 255.43 101.932 255.634 101.603C255.849 101.263 255.957 100.861 255.957 100.396V100.039H254.359C254.03 100.039 253.707 100.05 253.39 100.073C253.072 100.084 252.783 100.13 252.523 100.209C252.273 100.277 252.075 100.396 251.928 100.566C251.78 100.736 251.707 100.98 251.707 101.297C251.707 101.603 251.786 101.852 251.945 102.045C252.103 102.238 252.313 102.385 252.574 102.487C252.834 102.578 253.106 102.623 253.39 102.623Z" fill="#0862EE"/>
<line x1="85" y1="324.293" x2="335.293" y2="74" stroke="#CAD2FF" stroke-linecap="round"/>
<line x1="85.7071" y1="74" x2="336" y2="324.293" stroke="#CAD2FF" stroke-linecap="round"/>
<defs>
<filter id="filter0_d_4615_1341" x="255.142" y="118.142" width="184.421" height="184.421" filterUnits="userSpaceOnUse" color-interpolation-filters="sRGB">
<feFlood flood-opacity="0" result="BackgroundImageFix"/>
<feColorMatrix in="SourceAlpha" type="matrix" values="0 0 0 0 0 0 0 0 0 0 0 0 0 0 0 0 0 0 127 0" result="hardAlpha"/>
<feMorphology radius="15" operator="erode" in="SourceAlpha" result="effect1_dropShadow_4615_1341"/>
<feOffset dx="22" dy="22"/>
<feGaussianBlur stdDeviation="8"/>
<feComposite in2="hardAlpha" operator="out"/>
<feColorMatrix type="matrix" values="0 0 0 0 0 0 0 0 0 0.265761 0 0 0 0 0.679167 0 0 0 0.29 0"/>
<feBlend mode="normal" in2="BackgroundImageFix" result="effect1_dropShadow_4615_1341"/>
<feBlend mode="normal" in="SourceGraphic" in2="effect1_dropShadow_4615_1341" result="shape"/>
</filter>
</defs>
</svg>
