<svg width="50" height="50" viewBox="0 0 50 50" fill="none" xmlns="http://www.w3.org/2000/svg">
<rect width="50" height="50" fill="#29A5FF"/>
<g clip-path="url(#clip0_411_2964)">
<path fill-rule="evenodd" clip-rule="evenodd" d="M33.84 19.0559C33.8836 18.7912 33.8555 18.5197 33.7585 18.2696C33.6615 18.0195 33.4992 17.8 33.2885 17.6339C33.0778 17.4679 32.8264 17.3614 32.5606 17.3255C32.2948 17.2896 32.0242 17.3257 31.777 17.4299L14.677 24.6299C13.485 25.1319 13.424 26.8559 14.677 27.3759C15.9177 27.8934 17.1765 28.3663 18.451 28.7939C19.619 29.1799 20.893 29.5369 21.914 29.6379C22.193 29.9719 22.544 30.2929 22.902 30.5879C23.449 31.0379 24.107 31.5009 24.787 31.9449C26.149 32.8349 27.66 33.6859 28.678 34.2399C29.895 34.8999 31.352 34.1399 31.57 32.8129L33.84 19.0559ZM16.594 25.9919L31.718 19.6249L29.6 32.4649C28.601 31.9219 27.162 31.1089 25.88 30.2709C25.2891 29.8916 24.7187 29.4813 24.171 29.0419C24.0246 28.9224 23.8825 28.7976 23.745 28.6679L27.706 24.7079C27.8936 24.5204 27.9991 24.2661 27.9992 24.0008C27.9993 23.7355 27.894 23.4811 27.7065 23.2934C27.519 23.1058 27.2646 23.0003 26.9994 23.0002C26.7341 23.0001 26.4796 23.1054 26.292 23.2929L21.955 27.6299C21.221 27.5359 20.199 27.2639 19.077 26.8939C18.2417 26.6157 17.4141 26.3149 16.595 25.9919H16.594Z" fill="white"/>
</g>
<defs>
<clipPath id="clip0_411_2964">
<rect width="24" height="24" fill="white" transform="translate(12 13)"/>
</clipPath>
</defs>
</svg>
