<svg width="50" height="50" viewBox="0 0 50 50" fill="none" xmlns="http://www.w3.org/2000/svg">
<rect opacity="0.15" width="50" height="50" fill="white"/>
<g clip-path="url(#clip0_411_2986)">
<path fill-rule="evenodd" clip-rule="evenodd" d="M33.84 19.0564C33.8836 18.7917 33.8555 18.5202 33.7585 18.2701C33.6615 18.02 33.4992 17.8005 33.2885 17.6344C33.0778 17.4684 32.8265 17.3619 32.5606 17.326C32.2948 17.2901 32.0242 17.3262 31.777 17.4304L14.677 24.6304C13.485 25.1324 13.424 26.8564 14.677 27.3764C15.9177 27.8939 17.1765 28.3668 18.451 28.7944C19.619 29.1804 20.893 29.5374 21.914 29.6384C22.193 29.9724 22.544 30.2934 22.902 30.5884C23.449 31.0384 24.107 31.5014 24.787 31.9454C26.149 32.8354 27.66 33.6864 28.678 34.2404C29.895 34.9004 31.352 34.1404 31.57 32.8134L33.84 19.0564ZM16.594 25.9924L31.718 19.6254L29.6 32.4654C28.601 31.9224 27.162 31.1094 25.88 30.2714C25.2892 29.8921 24.7187 29.4818 24.171 29.0424C24.0246 28.9228 23.8825 28.7981 23.745 28.6684L27.706 24.7084C27.8937 24.5209 27.9991 24.2665 27.9992 24.0013C27.9993 23.736 27.894 23.4816 27.7065 23.2939C27.519 23.1063 27.2647 23.0008 26.9994 23.0007C26.7341 23.0006 26.4797 23.1059 26.292 23.2934L21.955 27.6304C21.221 27.5364 20.199 27.2644 19.077 26.8944C18.2417 26.6162 17.4141 26.3154 16.595 25.9924H16.594Z" fill="white"/>
</g>
<defs>
<clipPath id="clip0_411_2986">
<rect width="24" height="24" fill="white" transform="translate(12 13)"/>
</clipPath>
</defs>
</svg>
