<svg width="50" height="50" viewBox="0 0 50 50" fill="none" xmlns="http://www.w3.org/2000/svg">
<rect opacity="0.15" width="50" height="50" fill="white"/>
<g clip-path="url(#clip0_411_2987)">
<path d="M24 15C29.523 15 34 19.477 34 25C34 30.523 29.523 35 24 35C22.298 35.0025 20.6237 34.5687 19.137 33.74L18.832 33.562L15.8 34.454C15.635 34.5026 15.4603 34.5083 15.2925 34.4705C15.1247 34.4327 14.9693 34.3526 14.8411 34.238C14.7129 34.1233 14.6162 33.9778 14.56 33.8152C14.5038 33.6526 14.49 33.4784 14.52 33.309L14.546 33.2L15.438 30.168C14.495 28.6093 13.9976 26.8218 14 25C14 19.477 18.477 15 24 15ZM24 17C22.5676 16.9997 21.1615 17.3841 19.9283 18.1128C18.6952 18.8416 17.6804 19.888 16.9898 21.1429C16.2992 22.3978 15.9582 23.8151 16.0024 25.2468C16.0466 26.6785 16.4743 28.0721 17.241 29.282C17.439 29.594 17.524 29.978 17.457 30.359L17.418 30.522L16.977 32.023L18.478 31.582C18.911 31.454 19.361 31.532 19.718 31.759C20.7663 32.4228 21.9547 32.8336 23.1892 32.959C24.4236 33.0844 25.6703 32.921 26.8307 32.4816C27.9911 32.0422 29.0334 31.3389 29.8752 30.4273C30.717 29.5157 31.3352 28.4208 31.6809 27.2291C32.0266 26.0374 32.0904 24.7817 31.8673 23.5611C31.6441 22.3405 31.14 21.1886 30.395 20.1964C29.65 19.2042 28.6843 18.3988 27.5744 17.8441C26.4645 17.2893 25.2408 17.0004 24 17ZM21.102 20.184C21.2127 20.1361 21.334 20.1178 21.4539 20.1309C21.5739 20.1441 21.6883 20.1882 21.786 20.259C22.29 20.627 22.69 21.121 23.034 21.603L23.361 22.077L23.514 22.302C23.6023 22.4311 23.6456 22.5856 23.6373 22.7418C23.629 22.8979 23.5695 23.047 23.468 23.166L23.393 23.242L22.469 23.928C22.4245 23.9602 22.3932 24.0074 22.3809 24.0609C22.3686 24.1144 22.3761 24.1706 22.402 24.219C22.612 24.599 22.983 25.166 23.409 25.592C23.836 26.018 24.429 26.414 24.835 26.647C24.923 26.697 25.029 26.681 25.101 26.616L25.139 26.571L25.74 25.656C25.8503 25.509 26.0133 25.4105 26.1947 25.381C26.3761 25.3516 26.5618 25.3935 26.713 25.498L27.256 25.877C27.796 26.262 28.315 26.676 28.726 27.201C28.8024 27.2995 28.851 27.4167 28.8667 27.5403C28.8823 27.664 28.8645 27.7896 28.815 27.904C28.419 28.828 27.416 29.615 26.374 29.577L26.215 29.567L26.024 29.549C25.988 29.5447 25.952 29.5401 25.916 29.535L25.678 29.495C24.754 29.321 23.273 28.797 21.738 27.263C20.204 25.728 19.68 24.247 19.506 23.323L19.466 23.085L19.441 22.877L19.428 22.702C19.4264 22.677 19.4251 22.652 19.424 22.627C19.386 21.583 20.177 20.58 21.102 20.184Z" fill="white"/>
</g>
<defs>
<clipPath id="clip0_411_2987">
<rect width="24" height="24" fill="white" transform="translate(12 13)"/>
</clipPath>
</defs>
</svg>
